<svg version="1.1" xmlns="http://www.w3.org/2000/svg" xmlns:xlink="http://www.w3.org/1999/xlink" width="491.4519" height="370.6875" viewBox="0,0,491.4519,370.6875"><g transform="translate(5.72595,6.34375)"><g data-paper-data="{&quot;isPaintingLayer&quot;:true}" fill-rule="nonzero" stroke="none" stroke-linecap="butt" stroke-linejoin="miter" stroke-miterlimit="10" stroke-dasharray="" stroke-dashoffset="0" style="mix-blend-mode: normal"><path d="M-5.72595,364.34375v-370.6875h491.4519v370.6875z" fill="#000000" stroke-width="0"/><text transform="translate(123.75,174.23125) scale(0.5,0.5)" font-size="40" xml:space="preserve" fill="#ffffff" fill-rule="nonzero" stroke="none" stroke-width="1" stroke-linecap="butt" stroke-linejoin="miter" stroke-miterlimit="10" stroke-dasharray="" stroke-dashoffset="0" font-family="Pixel" font-weight="normal" text-anchor="start" style="mix-blend-mode: normal"><tspan x="0" dy="0">Press       to play again</tspan><tspan x="0" dy="46.150000000000006px"> </tspan></text><path d="M214.548,157.14145v11.27107c0,0.22363 -0.08945,0.44726 -0.26836,0.53672c-1.43125,1.25234 -3.2203,1.87851 -5.05409,1.87851c-1.83378,0 -3.62284,-0.6709 -5.05409,-1.87851c-1.16289,-0.98398 -2.59413,-1.56543 -4.11483,-1.56543c-1.38652,0 -2.72831,0.44726 -3.84648,1.34179v7.46932c0,0.44726 -0.35781,0.80508 -0.80508,0.80508c-0.44726,0 -0.80508,-0.35781 -0.80508,-0.80508v-19.05347c0,-0.35781 0.22363,-0.58144 0.44726,-0.71562c1.43125,-1.16289 3.13085,-1.78906 4.91991,-1.78906c1.83378,0 3.66757,0.6709 5.09882,1.87851c1.16289,0.98398 2.59413,1.5207 4.11483,1.5207c1.5207,0 2.95195,-0.53672 4.11483,-1.5207c0.26836,-0.17891 0.58144,-0.22363 0.8498,-0.08945c0.26836,0.13418 0.40254,0.40254 0.40254,0.71562z" fill="#549a10" stroke-width="1"/><text transform="translate(62.69443,293.91123) scale(0.30513,0.30513)" font-size="40" xml:space="preserve" fill="#ffffff" fill-rule="nonzero" stroke="none" stroke-width="1" stroke-linecap="butt" stroke-linejoin="miter" stroke-miterlimit="10" stroke-dasharray="" stroke-dashoffset="0" font-family="Pixel" font-weight="normal" text-anchor="start" style="mix-blend-mode: normal"><tspan x="0" dy="0">Hi-score:</tspan></text><text transform="translate(67.69443,79.91123) scale(0.30513,0.30513)" font-size="40" xml:space="preserve" fill="#ffffff" fill-rule="nonzero" stroke="none" stroke-width="1" stroke-linecap="butt" stroke-linejoin="miter" stroke-miterlimit="10" stroke-dasharray="" stroke-dashoffset="0" font-family="Pixel" font-weight="normal" text-anchor="start" style="mix-blend-mode: normal"><tspan x="0" dy="0">Current score:</tspan></text></g></g></svg>