<svg version="1.1" xmlns="http://www.w3.org/2000/svg" xmlns:xlink="http://www.w3.org/1999/xlink" width="381" height="286" viewBox="0,0,381,286"><g transform="translate(-59,-48.50003)"><g data-paper-data="{&quot;isPaintingLayer&quot;:true}" fill-rule="nonzero" stroke-linejoin="miter" stroke-miterlimit="10" stroke-dasharray="" stroke-dashoffset="0" style="mix-blend-mode: normal"><text transform="translate(207,109.5) scale(0.26887,0.26887)" font-size="40" xml:space="preserve" fill="#000000" fill-rule="nonzero" stroke="none" stroke-width="1" stroke-linecap="butt" stroke-linejoin="miter" stroke-miterlimit="10" stroke-dasharray="" stroke-dashoffset="0" font-family="Sans Serif" font-weight="normal" text-anchor="start" style="mix-blend-mode: normal"><tspan x="0" dy="0">MeIzAwezomeDede</tspan><tspan x="0" dy="46.150000000000006px"> </tspan><tspan x="0" dy="46.150000000000006px">AwezomeXD</tspan></text><path d="M59,334.50003v-286h381v286z" fill="none" stroke="none" stroke-width="0" stroke-linecap="butt"/><path d="M327,110.83119c0,0.33362 0.60127,3.23255 -0.21271,5.4458c-0.93002,2.52879 -3.08111,7.13136 -3.08111,7.13136c0,0 4.34521,-0.2081 4.40197,0.76038c0.2744,4.6822 0.12383,8.60892 0.12383,8.60892c0,0 28.74557,-1.56768 33.42111,3.69812c6.87404,7.74184 -1.07643,14.63515 -1.37264,17.9257c-0.21168,2.3516 -11.67226,0.44163 -21.5431,-3.37909c-7.51873,-2.91028 -14.1151,-7.7688 -14.1151,-7.7688c0,0 -6.21199,14.69262 -8.93219,18.88644c-2.54389,3.92198 -10.32822,-1.86165 -10.32822,-1.86165c0,0 -2.50399,9.18522 -6.31374,17.00986c-3.50301,7.19465 -8.38815,13.02262 -7.32536,14.26246c2.71151,3.16321 3.07356,7.30597 6.80581,10.73182c1.98413,1.82125 11.44142,-3.28027 19.82487,-3.86358c7.02392,-0.48871 13.17483,3.44594 14.6965,5.19245c3.83514,4.4018 7.28486,9.37582 9.94883,14.52042c1.6903,3.26427 -6.79818,5.4523 -6.54027,17.65883c0.15423,7.29942 -2.82727,8.66321 -5.84071,10.35033c-2.75846,1.54437 -5.41537,1.15823 -9.39564,0.74811c-7.52442,-0.77529 -0.90622,-14.19567 -4.09582,-14.42324c-2.09485,-0.14946 -7.29351,11.85729 -9.58036,11.62593c-1.98733,-0.20105 12.3836,5.28808 26.69809,13.24789c3.82537,2.12716 7.38215,1.95699 9.87508,5.95018c2.42735,3.88815 0.9393,21.37497 -0.54216,23.13021c-0.65799,0.77959 -15.4488,18.83963 -74.61214,17.08413c-37.22836,-1.10465 -26.06232,-26.63436 -26.06232,-26.63436c0,0 -94.64299,18.32812 -106.15928,2.75316c-3.61551,-4.88972 2.86536,-17.44258 14.16828,-26.04428c11.52594,-8.77141 28.91466,-14.3458 28.91466,-14.3458c0,0 -3.69215,-4.42171 -3.14355,-6.98485c1.22164,-5.70776 11.53759,-6.64124 11.53759,-6.64124c0,0 6.3717,-10.71722 5.91893,-10.64844c-26.6329,4.04576 -33.72669,-8.75858 -33.72669,-8.75858c0,0 -4.01891,3.83665 -7.04511,5.59538c-2.71165,1.57592 -9.53626,2.93602 -11.01734,2.93602c-0.07349,0 -14.35963,16.83669 -28.77582,9.0883c-5.72293,-3.07595 -7.40676,-11.10713 -7.09405,-14.13207c0.60528,-5.85502 2.67989,-7.59276 2.67989,-7.59276c0,0 -7.58675,-2.02995 -11.58035,-7.50042c-3.76159,-5.15265 -3.95182,-13.62843 -3.71069,-17.79498c0.38162,-6.59396 8.86568,-6.23816 9.4756,-11.03108c0.52217,-4.10335 -1.80858,-8.13246 -0.96271,-11.99228c1.96946,-8.98691 12.74278,-16.36368 15.3302,-22.46227c3.06737,-7.22985 30.38715,14.53609 30.10699,10.28926c-0.33043,-5.00884 0.35653,-9.16894 1.32268,-9.91645c0.15103,-0.11685 22.43122,-4.48904 29.37514,4.95924c6.09014,8.28659 -1.47779,32.12067 0.7017,36.96281c3.56087,7.91113 7.00269,16.95138 8.49242,16.73897c4.26902,-0.6087 7.9223,0.74131 11.79466,-2.31674c2.2598,-1.78459 -0.51879,-6.80501 1.94217,-8.05159c2.51726,-1.2751 18.52453,-0.47958 18.52453,-0.47958l0.71326,-5.19649c0,0 -26.56153,-0.22746 -32.71984,-3.3445c-3.09482,-1.56645 -6.45421,-12.21834 -2.61978,-17.90168c3.86815,-5.73333 14.94413,-6.4916 14.94413,-6.4916c0,0 -8.19012,-53.05123 -8.19012,-71.3341c0,-18.26197 9.13554,-21.58565 24.8071,-24.03821c12.64664,-1.97917 29.54963,-1.11179 49.3429,-1.11179c18.66167,0 43.55365,10.23728 46.46605,25.96267c0.19945,1.07694 14.28395,30.55629 14.28395,34.78734z" fill="#3333cc" stroke="none" stroke-width="NaN" stroke-linecap="butt"/><path d="M230.63232,234.2834c0,4.25644 9.88429,9.61011 12.39366,13.47424c0.64097,0.98702 5.20076,5.67685 4.59175,6.42639c-0.44193,0.5439 -5.29952,-2.9546 -5.77321,-2.4936c-3.21514,3.12907 -7.17217,4.59297 -12.0122,4.59297c-2.17086,0 -8.65714,10.7001 -21.32134,16.56972c-8.03553,3.72432 -22.02322,3.1143 -27.87558,4.24622c-9.48084,1.83371 -19.56228,-12.61733 -20.63985,-14.06532c-0.32078,-0.43105 13.66715,-5.4238 22.70669,-8.52905c12.65293,-4.34652 32.55403,-5.70124 32.24675,-6.59285c-0.99447,-2.88561 -1.71667,-9.89942 -1.71667,-13.22872c0,-6.06045 3.7427,-11.31552 7.48083,-15.11718c3.34746,-3.40435 4.21393,-4.88282 9.11917,-4.88282c3.03631,0 36.36735,-7.04633 41.19868,-4.75413c0.73703,0.34968 -0.34396,7.08582 2.47099,12.51802c0.56763,1.09539 3.95542,0.64348 4.55448,1.82385c3.15763,6.22175 6.96699,13.00981 12.98491,19.80423c7.96969,8.99804 23.79227,14.02695 27.9578,20.4873c2.84765,4.41645 2.03075,7.72531 1.03489,8.56111c-0.60613,0.50871 -29.2611,12.21148 -44.32075,17.41524c-8.58612,2.96688 -14.17873,-4.40859 -19.47849,-5.2711c-6.25438,-1.01787 3.88093,-23.36356 3.24194,-24.49683c-1.25629,-2.22809 -2.92563,-2.90386 -3.42941,-6.18221c-0.40237,-2.61846 0.60096,-3.48926 0.94134,-6.5104c0.5087,-4.5151 1.32351,-9.51928 0.88003,-12.13682c-0.47045,-2.77679 -2.67555,-3.22217 -3.10271,-3.1903c-2.38668,0.17807 -24.13371,-1.85701 -24.13371,1.53204z" fill="#000000" stroke="none" stroke-width="0" stroke-linecap="butt"/><path d="M303.16424,222.59808c0,5.85422 -8.75461,8 -16.1,8c-3.65287,0 -5.46502,1.69732 -7.57033,-2.1421c-2.12815,-3.88109 -1.92967,-11.71499 -1.92967,-14.6579c0,-5.85422 4.75461,-2.8 12.1,-2.8c7.34539,0 13.5,5.74578 13.5,11.6z" fill="#000000" stroke="none" stroke-width="0" stroke-linecap="butt"/><path d="M153.76424,276.89808c0,3.03757 -6.97289,3.5 -9.9,3.5c-2.92711,0 -3.7,-0.86243 -3.7,-3.9c0,-3.03757 2.17289,-6.3 5.1,-6.3c2.92711,0 8.5,3.66243 8.5,6.7z" fill="#ffffff" stroke="#000000" stroke-width="3" stroke-linecap="butt"/><path d="M309.56424,259.59808c0.13406,0.76623 -0.00108,1.36865 -0.33408,1.84284c-0.61087,0.86988 -1.13756,2.68321 -2.63956,2.90955c-2.56514,0.38656 -6.53743,-1.22016 -8.22266,-0.97648c-6.31099,0.91256 -1.67033,3.08162 -7.21298,2.88216c-2.28986,-0.0824 -4.99048,-1.96949 -7.18927,-1.99299c-2.40472,-0.0257 -4.68763,2.13492 -6.70144,2.13492c-3.56054,0 -2.70691,-1.16302 -6.62589,-2.40171c-3.74187,-1.18271 -3.07644,3.36561 -8.95492,2.59144c-3.38971,-0.44641 -1.66017,-4.06395 -2.53699,-6.71777c-0.59145,-1.79008 -1.38219,-2.75116 -1.38219,-5.27196c0,-8.39473 8.71542,-15.8 20.7,-15.8c6.48761,0 13.81647,4.77661 20.64243,9.38923c5.78365,3.90829 9.79397,7.61797 10.45757,11.41077z" fill="#ffffff" stroke="#000000" stroke-width="3" stroke-linecap="butt"/><path d="M266.57219,164.65445c0,2.41862 2.22283,9.73658 -0.35709,13.11381c-0.7692,1.00691 8.70277,-0.91628 8.20195,3.13761c-1.17566,9.51634 -5.20139,30.16524 -8.84486,30.16524c-0.75199,0 3.98289,-0.28972 3.98289,-0.28972l2.52924,13.33304c0,0 -5.84048,3.23724 -9.35754,4.07246c-11.26136,2.67433 -32.62743,5.39535 -44.16636,3.4542c-4.12741,-0.69434 6.43154,-13.74342 4.35766,-14.44065c-3.77582,-1.26942 1.06155,-22.43396 0.47875,-22.46477c-2.37203,-0.1254 12.69348,-14.42189 11.31523,-15.63409c-3.10067,-2.72711 -2.13986,-9.79012 -2.13986,-12.11381c0,-4.83249 8.09864,-3.91667 18.5,-3.91667c10.40136,0 15.5,-3.24916 15.5,1.58333z" fill="#000000" stroke="none" stroke-width="0" stroke-linecap="butt"/><path d="M148.32662,180.20702c0.47751,2.28931 6.82519,4.97949 6.96433,6.92437c0.731,10.2177 -3.04249,15.81232 -9.58614,18.15313c-0.85882,0.30721 -7.29544,5.38934 -8.24577,5.58756c-5.21924,1.08863 -5.74358,0.12445 -10.76099,-5.65385c-2.04607,-2.35635 -3.55076,-4.38725 -5.09742,-7.45162c-0.47825,-0.94756 -5.60277,-0.56052 -6.76609,-2.00923c-2.76408,-3.44214 -2.77516,-10.17862 -3.31693,-12.77602c-0.8597,-4.12166 5.05815,-4.41888 5.47047,-8.02069c0.10293,-0.89915 0.24107,-1.77758 0.41221,-2.63303c0.4651,-2.3248 -4.02339,-6.86897 -3.11518,-8.80899c2.58159,-5.51447 11.9715,-6.90224 16.75669,-7.90034c2.12837,-0.44394 7.30018,-2.4974 11.30436,-3.14182c1.82318,-0.29341 7.79096,-10.60768 8.73253,-10.03192c0.6842,0.41838 6.50811,5.76365 6.90889,6.38104c3.28264,5.05672 -11.65925,21.80096 -9.66096,31.38141z" fill="#000000" stroke="none" stroke-width="0" stroke-linecap="butt"/><path d="M139.1814,150.75937c0,4.82057 0.0513,7.26405 -1.1251,9.52166c-0.71049,1.36349 -1.23356,3.38459 -4.29157,3.14501c-19.1462,-1.5 -26.91666,-3.10135 -26.91666,-10.83333c0,-7.73199 6.00976,-14.74797 9.75,-15.83334c1.14024,-0.33088 8.28421,2.82216 13.37508,5.12672c5.63667,2.55163 9.20825,4.8106 9.20825,8.87328z" fill="#ffffff" stroke="#000000" stroke-width="3" stroke-linecap="butt"/><path d="M318.74253,115.22112c-0.27819,13.75441 -6.1579,26.5262 -16.11214,36.31788c-11.72481,11.53334 -74.43588,20.59879 -94.97119,20.59879c-16.63398,0 -19.70629,-6.19771 -17.86268,-15.68156c1.06129,-5.45946 18.42172,-6.08987 18.42172,-6.08987c0,0 -5.47199,-31.2002 -5.30905,-40.47857c0.66667,-37.96145 17.78042,-51.25 55.75,-51.25c37.96958,0 60.75,23.62189 60.08333,56.58333z" fill="#ffffff" stroke="#000000" stroke-width="3" stroke-linecap="butt"/><path d="M274.19048,205.63095c0.10552,2.49992 -9.71014,7.88101 -17.59134,11.81779c-4.5675,2.28153 -7.71045,4.41003 -9.90866,4.34888c-4.02107,-0.11186 -7.5885,-6.0609 -8.84158,-5.72018c-1.87258,0.50917 -11.0501,13.55927 -19.442,3.03207c-8.98928,-11.27658 -0.49377,-13.539 2.31618,-15.94041c0.68717,-0.58727 -0.01448,-2.29946 -0.03866,-2.46187c-0.36238,-2.43413 -1.82727,-2.71609 -1.82727,-5.07627c0,-0.33571 0.58921,-3.51646 0.75005,-3.8711c1.41369,-3.11723 7.86036,-3.95982 8.3851,-5.15947c0.57323,-1.31051 -5.32782,-7.34791 -0.32742,-10.39317c1.24166,-0.75617 2.78531,-0.68713 4.50376,-0.1703c4.90275,1.47455 6.56151,8.26071 11.35518,8.26071c1.16691,0 4.85658,1.23502 8.73581,-0.32403c3.28185,-1.31896 6.65198,-5.30101 9.23286,-6.89343c6.61471,-4.08133 13.51488,-9.52281 17.18565,-7.36507c6.88272,4.04576 -3.12222,13.6121 -1.73095,15.74149c3.24521,4.96688 -5.84629,14.68114 -5.79394,15.08166c0.2404,1.83908 2.95281,3.09248 3.03724,5.09271z" fill="#ffffff" stroke="#000000" stroke-width="3" stroke-linecap="butt"/><path d="M226.32587,126.88779l-10.42245,-7.76298c0,0 -2.22295,-25.59688 -1.79584,-27.92083c0.60181,-3.27452 0.02584,-5.83245 0.59806,-8.95731c1.31749,-7.19479 1.78689,-12.19222 1.78689,-12.19222" fill="none" stroke="#000000" stroke-width="2" stroke-linecap="round"/><path d="M243.70087,138.71709c0,8.71853 -14.10748,16.25403 -22.875,16.25403c-8.76752,0 -7.875,-4.49518 -7.875,-13.21371c0,-8.71853 12.85748,-15.78629 21.625,-15.78629c8.76752,0 9.125,4.02744 9.125,12.74597z" fill="#000000" stroke="none" stroke-width="0" stroke-linecap="butt"/><path d="M201.11754,157.38779c0,0 2.8943,-3.19268 4.21141,-4.11465c1.16389,-0.81473 3.12192,-2.46868 3.12192,-2.46868" fill="none" stroke="#000000" stroke-width="2" stroke-linecap="round"/><path d="M282.20087,137.93674c0,7.74061 -3.3387,13.28438 -13.625,13.28438c-10.2863,0 -19.625,-6.27501 -19.625,-14.01562c0,-7.74061 6.3387,-15.23438 16.625,-15.23438c10.2863,0 16.625,8.22501 16.625,15.96562z" fill="#000000" stroke="none" stroke-width="0" stroke-linecap="butt"/><path d="M294.61627,141.00683c0,0 3.69091,3.49293 4.4639,5.41436c0.87982,2.18696 0.5361,7.01421 0.5361,7.01421" fill="none" stroke="#000000" stroke-width="2" stroke-linecap="round"/><path d="M270.95087,149.97112c0,0 1.28383,3.00802 1.56478,4.85427c0.301,1.978 0.18522,6.64573 0.18522,6.64573" fill="none" stroke="#000000" stroke-width="2" stroke-linecap="round"/><path d="M277.04484,147.00683c0,0 2.5903,2.97423 3.49247,4.89424c0.95226,2.02661 2.07895,6.9629 2.07895,6.9629" fill="none" stroke="#000000" stroke-width="2" stroke-linecap="round"/><path d="M233.90552,164.82112c0,2.89949 1.5599,6.08333 -0.83333,6.08333c-1.34228,0 -5.26664,1.04151 -6.84428,-0.1655c-1.23522,-0.94503 -0.98906,-4.31124 -0.98906,-5.5845c0,-2.89949 0.77343,-5.91667 3.16667,-5.91667c2.39323,0 5.5,2.68384 5.5,5.58333z" fill="#ffffff" stroke="#000000" stroke-width="3" stroke-linecap="butt"/><path d="M241.90552,162.07112c0,1.69134 0.63298,4.39032 -0.23126,5.50442c-0.87603,1.1293 -3.92501,1.66224 -5.26874,1.66224c-2.66938,0 -3,-2.92758 -3,-6.33333c0,-3.40576 0.49729,-6.16667 3.16667,-6.16667c2.66938,0 5.33333,1.92758 5.33333,5.33333z" fill="#ffffff" stroke="#000000" stroke-width="3" stroke-linecap="butt"/><path d="M249.73885,162.48778c0,1.45944 0.4071,3.78408 -0.28599,4.75808c-0.7276,1.0225 -4.41595,0.49192 -5.54734,0.49192c-2.20914,0 -2.16667,-2.25846 -2.16667,-5.25c0,-2.99154 1.45753,-5.58333 3.66667,-5.58333c2.20914,0 4.33333,2.59179 4.33333,5.58333z" fill="#ffffff" stroke="#000000" stroke-width="3" stroke-linecap="butt"/><path d="M257.90552,162.40445c0,3.12961 1.19171,5.16667 -0.83333,5.16667c-1.33262,0 -5.38761,0.85669 -6.52316,-0.58909c-0.59004,-0.75123 0.02316,-2.67412 0.02316,-3.74424c0,-3.12961 1.64162,-7.33333 3.66667,-7.33333c2.02504,0 3.66667,3.37039 3.66667,6.5z" fill="#ffffff" stroke="#000000" stroke-width="3" stroke-linecap="butt"/><path d="M266.90552,160.82112c0,1.41633 0.8647,4.44541 -0.04988,5.5597c-1.31437,1.60138 -4.53888,1.02363 -5.95012,1.02363c-2.39323,0 -2.5,-3.13155 -2.5,-6.58333c0,-3.45178 1.9401,-5.91667 4.33333,-5.91667c2.39323,0 4.16667,2.46489 4.16667,5.91667z" fill="#ffffff" stroke="#000000" stroke-width="3" stroke-linecap="butt"/><path d="M247.42857,179.85715c0,2.13024 0.72081,3.57143 -0.85714,3.57143c-1.02952,0 -3.05058,0.63267 -3.93389,-0.51221c-0.47055,-0.60989 -0.20897,-2.74739 -0.20897,-3.48779c0,-2.13024 -0.14938,-3.28572 1.42857,-3.28572c1.57796,0 3.57143,1.58405 3.57143,3.71429z" fill="#ffffff" stroke="#000000" stroke-width="3" stroke-linecap="butt"/><path d="M254.42857,178.85715c0,2.13024 0.35621,4.42857 -1.14285,4.42857c-1.00087,0 -3.40188,0.83261 -4.5074,-0.4824c-0.55029,-0.65455 -0.34974,-3.23821 -0.34974,-3.94617c0,-0.83933 -0.04032,-2.09877 0.52192,-2.62439c0.86475,-0.80843 3.14109,-0.66133 4.04951,-0.66133c1.49906,0 1.42857,1.15548 1.42857,3.28572z" fill="#ffffff" stroke="#000000" stroke-width="3" stroke-linecap="butt"/><path d="M242.98535,190.6566c-0.99128,2.37908 -4.1878,-0.06437 -7.75641,-1.55129c-3.56861,-1.48692 -5.99128,-4.78759 -5,-7.16666c0.99128,-2.37908 5.1878,-1.93564 8.75641,-0.44872c1.54697,0.64457 3.35735,1.50582 4.07597,3.03506c0.93912,1.99847 0.4856,4.78386 -0.07597,6.13162z" fill="#000000" stroke="none" stroke-width="0" stroke-linecap="butt"/><path d="M242.93267,202.12585c-0.9645,2.48904 -5.73257,1.92466 -10.23858,0.17857c-4.50601,-1.74608 -7.71031,-6.01266 -6.74581,-8.50169c0.9645,-2.48904 5.73256,-1.09132 10.23858,0.65476c4.50601,1.74608 7.71031,5.17933 6.74581,7.66836z" fill="#000000" stroke="none" stroke-width="0" stroke-linecap="butt"/><path d="M229.99423,208.87369c1.84554,2.29567 4.04659,5.29909 2.03789,6.91394c-2.0087,1.61485 -4.96652,0.06293 -6.81206,-2.23274c-1.84554,-2.29567 -4.71326,-4.63243 -2.70455,-6.24727c2.0087,-1.61485 5.63319,-0.7296 7.47872,1.56607z" fill="#000000" stroke="none" stroke-width="0" stroke-linecap="butt"/><path d="M265.92154,204.45389c0.74394,2.37132 -3.3779,6.23351 -8.38403,7.80406c-5.00612,1.57055 -8.66748,2.25472 -9.41142,-0.1166c-0.74394,-2.37132 1.71124,-6.2335 6.71736,-7.80405c5.00612,-1.57055 10.33415,-2.25473 11.07809,0.11659z" fill="#000000" stroke="none" stroke-width="0" stroke-linecap="butt"/><path d="M269.37338,192.05887c0.72625,2.3768 -5.26394,7.25362 -11.11792,9.04234c-5.85397,1.78871 -9.35497,1.31198 -10.08121,-1.06483c-0.72625,-2.3768 3.9306,-5.42029 9.78458,-7.209c5.85397,-1.78871 10.68831,-3.14531 11.41455,-0.76851z" fill="#000000" stroke="none" stroke-width="0" stroke-linecap="butt"/><path d="M272.82534,179.80222c0.87318,2.52253 -6.00878,7.48315 -11.05383,9.22951c-5.04504,1.74636 -10.17606,1.61716 -11.04924,-0.90537c-0.87318,-2.52253 3.00879,-5.81647 8.05383,-7.56283c5.04504,-1.74636 13.17605,-3.28383 14.04923,-0.76131z" fill="#000000" stroke="none" stroke-width="0" stroke-linecap="butt"/><path d="M261.85715,175.71428c0,2.13024 -2.75888,4.14286 -4.92857,4.14286c-2.16969,0 -2.21429,-1.44119 -2.21429,-3.57143c0,-2.13024 1.47317,-2.42857 3.64286,-2.42857c2.16969,0 3.5,-0.2731 3.5,1.85714z" fill="#ffffff" stroke="#000000" stroke-width="3" stroke-linecap="butt"/><path d="M237.71429,176.21429c0,2.80087 0.68673,7.64286 -1.28571,7.64286c-1.97244,0 -5,-1.69913 -5,-4.5c0,-2.80087 0.17041,-5.21429 2.14286,-5.21429c1.97244,0 4.14285,-0.72944 4.14285,2.07143z" fill="#ffffff" stroke="#000000" stroke-width="3" stroke-linecap="butt"/><path d="M242.21429,179.71429c0,2.44583 0.55149,4.57143 -0.67143,4.57143c-0.74542,0 -2.42733,0.79805 -3.03587,-0.24824c-0.3898,-0.67022 -0.50699,-3.22534 -0.50699,-4.18033c0,-1.40088 0.18237,-3.22127 0.69004,-4.03277c0.37869,-0.60532 2.03033,-0.1101 2.55281,-0.1101c1.22292,0 0.97143,1.55417 0.97143,4z" fill="#ffffff" stroke="#000000" stroke-width="3" stroke-linecap="butt"/><path d="M213.85715,91.46429l18.33333,-30" fill="none" stroke="#000000" stroke-width="2" stroke-linecap="round"/><path d="M200.94048,150.88095l3.66667,3" fill="none" stroke="#000000" stroke-width="2" stroke-linecap="round"/><path d="M190.85715,154.79762l11.96236,8.55668c0,0 -1.11055,0.42114 -1.91952,0.48511c-1.39031,0.10993 -5.6696,0.11495 -5.6696,0.11495l-3.5399,3.50993" fill="none" stroke="#000000" stroke-width="2" stroke-linecap="round"/><path d="M281.19048,152.63095v-9.83333" fill="none" stroke="#000000" stroke-width="2" stroke-linecap="round"/><path d="M299.52381,145.79762l5.5,1.66666" fill="none" stroke="#000000" stroke-width="2" stroke-linecap="round"/><path d="M258.85715,193.96429l1.5,-7" fill="none" stroke="#000000" stroke-width="2" stroke-linecap="round"/><path d="M251.85715,198.29762c0,0 -2.42028,-1.68436 -3.1867,-2.81981c-0.73199,-1.08443 -1.3133,-3.84686 -1.3133,-3.84686" fill="none" stroke="#000000" stroke-width="2" stroke-linecap="round"/><path d="M236.35716,201.29762l-1.4392,4.34914c0,0 -1.67464,-0.70812 -2.89636,-0.35686c-1.43175,0.41164 -5.16445,2.67439 -5.16445,2.67439" fill="none" stroke="#000000" stroke-width="2" stroke-linecap="round"/><path d="M257.85715,216.63095l0.16666,-5.33333" fill="none" stroke="#000000" stroke-width="2" stroke-linecap="round"/><path d="M289.47362,180.18876c-2.31469,5.26676 -5.07795,9.39391 -7.81667,8.19027c-1.23336,-0.54205 -3.21762,-0.27093 -3.71559,-2.12234c-0.60778,-2.25968 1.3422,-6.69846 2.61449,-9.59337c1.36872,-3.11435 4.78477,-8.90595 7.36966,-9.73754c1.7865,-0.57474 2.16109,0.55536 3.28035,1.04727c2.73872,1.20364 0.58246,6.94894 -1.73224,12.21571z" fill="#ffffff" stroke="#000000" stroke-width="3" stroke-linecap="butt"/><path d="M258.19048,212.29762l3.33334,2.5" fill="none" stroke="#000000" stroke-width="2" stroke-linecap="round"/><path d="M280.59807,194.09271c0,2.39324 -1.29086,4.33333 -3.5,4.33333c-2.20914,0 -3.66667,-1.9401 -3.66667,-4.33333c0,-2.39324 1.95753,-4.16667 4.16667,-4.16667c2.20914,0 3,1.77343 3,4.16667z" fill="#ffffff" stroke="#000000" stroke-width="3" stroke-linecap="butt"/><path d="M215.8086,201.57565c0.5899,3.80244 -7.32124,4.4455 -13.20554,6.13175c-3.7486,1.07423 -3.62563,-3.46188 -4.54886,-6.93098c-0.92323,-3.46911 7.95695,-5.72419 13.87222,-7.29842c5.91527,-1.57423 3.33186,4.55023 3.88219,8.09765z" fill="#ffffff" stroke="#000000" stroke-width="3" stroke-linecap="butt"/><path d="M288.59807,209.67604c0,2.38252 -4.65336,6.25 -6.91667,6.25c-3.05399,0 -4.48909,-2.23398 -5.61755,-5.08722c-0.52112,-1.31761 -1.63245,-2.63616 -1.63245,-4.16278c0,-2.21611 1.46624,-3.4192 2.83476,-4.50546c1.61571,-1.28246 3.33153,-2.24454 5.74857,-2.24454c1.8515,0 2.79428,2.01251 3.65378,3.34732c1.21292,1.88366 1.92955,3.5744 1.92955,6.40268z" fill="#ffffff" stroke="#000000" stroke-width="3" stroke-linecap="butt"/><path d="M194.59807,204.00937c0,1.42067 0.1573,3.45623 -0.57342,4.48302c-0.76064,1.06883 -2.42778,1.10031 -3.34324,1.10031c-1.79493,0 -2.58334,-2.68384 -2.58334,-5.58334c0,-2.8995 0.78841,-5.25 2.58334,-5.25c1.79493,0 3.91666,2.3505 3.91666,5.25z" fill="#ffffff" stroke="#000000" stroke-width="3" stroke-linecap="butt"/><path d="M181.1814,211.09271c-7.40688,0.20889 -22.25,-14.99678 -22.25,-23.83334c0,-3.7911 10.18585,-7.66666 14.41666,-7.66666c3.36229,0 3.66469,6.61819 5.35294,13.68189c2.03232,8.5033 9.20856,17.22707 2.48039,17.81811z" fill="#ffffff" stroke="#000000" stroke-width="3" stroke-linecap="butt"/><path d="M176.09807,153.67604c0,8.97463 0.09083,14.76962 -6.16666,14.91667c-7.09256,0.16666 -15.5,-19.60871 -15.5,-28.58334c0,-2.82897 14.05173,-1.44863 18.33333,-1.25c3.59256,0.16666 3.33334,5.94204 3.33334,14.91667z" fill="#ffffff" stroke="#000000" stroke-width="3" stroke-linecap="butt"/><path d="M126.26969,197.95088c2.87182,2.98495 7.53673,9.94681 5.60628,15.36578c-1.88425,5.2893 -8.20053,10.64028 -13.42789,9.26477c-4.00577,-1.05407 -10.03017,-7.77782 -6.59124,-12.21638c0.20614,-0.26607 0.93186,-1.76824 1.17565,-2.09633c3.65206,-4.91461 10.5451,-13.11601 13.23721,-10.31785z" fill="#ffffff" stroke="#000000" stroke-width="3" stroke-linecap="butt"/><path d="M117.4314,186.67604c0,0.58943 -6.59493,9.33333 -9.58333,9.33333c-6.48934,0 -10.41667,-10.24078 -10.41667,-16.5c0,-6.25922 7.92732,-7.66666 14.41667,-7.66666c6.48935,0 5.58333,8.57411 5.58333,14.83333z" fill="#ffffff" stroke="#000000" stroke-width="3" stroke-linecap="butt"/><path d="M119.6814,161.05938c0,0 -0.04088,-8.34405 0.88333,-11.11667c0.96308,-2.88925 4.78334,-6.68334 4.78334,-6.68334" fill="none" stroke="#000000" stroke-width="3.5" stroke-linecap="round"/><path d="M157.2314,153.85937c0,0 7.3326,-4.74589 9.30967,-5.18813c2.2175,-0.49602 7.957,-0.04521 7.957,-0.04521" fill="none" stroke="#000000" stroke-width="3.5" stroke-linecap="round"/><path d="M137.00911,163.18658l-4.4,-7.4l7,-5" fill="none" stroke="#000000" stroke-width="2" stroke-linecap="round"/><path d="M123.35911,153.48658l1.8,-1l5.6,2.4" fill="none" stroke="#000000" stroke-width="2" stroke-linecap="round"/><path d="M131.70911,154.88658l-6.4,-1.2v-10.6" fill="none" stroke="#000000" stroke-width="2" stroke-linecap="round"/><path d="M99.85911,186.13658l5.85,-12.8" fill="none" stroke="#000000" stroke-width="2" stroke-linecap="round"/><path d="M181.4591,203.73658c0,0 -5.89214,1.87575 -7.44247,-0.43942c-0.81504,-1.21713 -3.41671,-6.48145 -3.41671,-6.48145l2.28255,-2.72487l-6.42336,-12.75426" fill="none" stroke="#000000" stroke-width="2" stroke-linecap="round"/><path d="M171.25911,188.73658l2.8,-7.2" fill="none" stroke="#000000" stroke-width="2" stroke-linecap="round"/><path d="M204.85911,196.13658l3.8,3.4l0.8,5.6" fill="none" stroke="#000000" stroke-width="2" stroke-linecap="round"/><path d="M233.66792,233.52025c-1.25439,3.01732 -6.51527,2.37878 -10.72253,0.62969c-4.20726,-1.74909 -7.10103,-6.61303 -5.84663,-9.63036c1.25439,-3.01732 6.18194,0.12123 10.3892,1.87032c4.20726,1.74909 7.43436,4.11302 6.17996,7.13035z" fill="#ffffff" stroke="#000000" stroke-width="3" stroke-linecap="butt"/><path d="M270.00119,230.27075c1.22391,2.8303 -1.11257,5.63169 -3.98511,6.87386c-2.87254,1.24218 -6.0267,1.95476 -7.25061,-0.87554c-1.22391,-2.8303 0.11257,-5.63169 2.98511,-6.87386c2.87254,-1.24218 7.0267,-1.95476 8.25061,0.87554z" fill="#ffffff" stroke="#000000" stroke-width="3" stroke-linecap="butt"/><path d="M208.60911,200.13658l3.4,-5" fill="none" stroke="#000000" stroke-width="2" stroke-linecap="round"/><path d="M255.8,226.51992c0,3.54382 -8.74489,7.27211 -11.66667,6.91666c-3.32958,-0.40506 -10.01499,-2.82054 -12.43383,-5.55992c-0.56695,-0.64209 -0.8995,-1.18383 -0.8995,-1.85674c0,-1.05104 0.41547,-1.52145 1.0724,-2.19946c1.55808,-1.60806 4.47445,-2.64941 6.4276,-2.88388c2.74364,-0.32937 4.92606,5.84189 7.20107,6.19c1.57389,0.24083 7.90296,-3.72622 9.35013,-2.64553c0.90945,0.67914 0.9488,1.25778 0.9488,2.03886z" fill="#ffffff" stroke="#000000" stroke-width="3" stroke-linecap="butt"/><path d="M272.46666,228.18658c0,3.56474 -2.09598,-0.18182 -6.36363,-0.18182c-4.26765,0 -9.72727,5.83747 -9.72727,2.27273c0,-3.56474 8.64144,-11.63637 12.90909,-11.63637c4.26765,0 3.18181,5.98071 3.18181,9.54546z" fill="#ffffff" stroke="#000000" stroke-width="3" stroke-linecap="butt"/><path d="M266.28485,240.00476c0,0.92234 -1.09541,3.08405 -2.61062,4.04077c-1.28913,0.81397 -2.95746,0.50468 -3.70756,0.50468c-1.63175,0 -1.31818,-2.20203 -1.31818,-3.90909c0,-1.70706 1.4137,-2.27272 3.04546,-2.27272c1.63175,0 4.59091,-0.0707 4.59091,1.63636z" fill="#ffffff" stroke="#000000" stroke-width="3" stroke-linecap="butt"/><path d="M221.14849,236.91385c-1.69135,0.16619 -15.04546,0.93052 -15.04546,-1.0909c0,-4.11703 2.43392,-12.54546 5.77273,-12.54546c1.57935,0 5.57736,2.8694 7.84931,6.08521c2.53104,3.58253 3.27379,7.36933 1.42342,7.55115z" fill="#ffffff" stroke="#000000" stroke-width="3" stroke-linecap="butt"/><path d="M235.83031,246.68658c0,2.78653 -6.50835,-0.22727 -11.63637,-1.5c-5.50641,-1.36664 -10.36363,-1.71347 -10.36363,-4.5c0,-2.78653 4.78107,-3.95454 10.45454,-3.95454c5.67347,0 11.54546,7.16801 11.54546,9.95454z" fill="#ffffff" stroke="#000000" stroke-width="3" stroke-linecap="butt"/><path d="M286.83031,184.15079l-1.93236,-3.12975l2.10874,-8.75143l-1.17639,-2.36883" fill="none" stroke="#000000" stroke-width="2" stroke-linecap="round"/><path d="M291.20531,173.15079l-4,0.125" fill="none" stroke="#000000" stroke-width="2" stroke-linecap="round"/><path d="M207.83031,228.90079l3,3.125l-0.25,4.125" fill="none" stroke="#000000" stroke-width="2" stroke-linecap="round"/><path d="M211.20531,231.40079l5.25,-3.625" fill="none" stroke="#000000" stroke-width="2" stroke-linecap="round"/><path d="M225.70531,233.52579l4.75,-4.125" fill="none" stroke="#000000" stroke-width="2" stroke-linecap="round"/><path d="M290.16424,240.19808c0,9.16792 -0.40558,15.6 -8.9,15.6c-2.0693,0 -3.61025,-0.11237 -4.75768,-1.02382c-2.43326,-1.93284 -0.1987,-5.55847 -0.2025,-10.17613c-0.00159,-1.93297 -3.73982,0.23032 -3.73982,-1.80005c0,-9.16792 4.20558,-22 11.3,-21.6c1.46877,0.08282 3.73162,1.73302 3.93959,3.99636c0.20677,2.25028 -1.6384,5.10663 -1.19739,7.63121c0.26046,1.49099 3.24775,0.49166 3.37098,2.14157c0.12795,1.7131 0.18682,3.47928 0.18682,5.23086z" fill="#ffffff" stroke="#000000" stroke-width="3" stroke-linecap="butt"/><path d="M329.56424,230.69808c0,6.7931 1.51401,9.9 -5.5,9.9c-4.90323,0 -1.02311,-8.61804 -4.26974,-13.48681c-1.71582,-2.57312 -8.14513,-0.98267 -10.62539,-2.61708c-2.22295,-1.46485 -1.60487,-5.18902 -1.60487,-6.79611c0,-6.7931 5.68599,-1.9 12.7,-1.9c7.01401,0 9.3,8.1069 9.3,14.9z" fill="#ffffff" stroke="#000000" stroke-width="3" stroke-linecap="butt"/><path d="M333.36424,214.69808c0,2.65976 3.59573,6.78083 -4.45196,10.39281c-5.76159,2.58593 -5.56865,-6.69281 -13.44804,-8.29281c-7.41497,-1.5057 -12.3,2.59442 -12.3,-2.1c0,-4.69442 8.9337,-8.5 16.5,-8.5c7.5663,0 13.7,3.80558 13.7,8.5z" fill="#ffffff" stroke="#000000" stroke-width="3" stroke-linecap="butt"/><path d="M309.88046,220.00813c1.98814,7.70039 -1.98087,17.44923 -7.80964,18.95414c-2.96761,0.7662 -5.02875,0.03925 -7.80176,-3.38998c-1.56723,-1.93811 6.05997,-8.60899 4.7903,-11.89825c-1.36307,-3.53122 -11.45746,0.44952 -11.86129,-1.11456c-1.98814,-7.70039 1.78161,-11.82071 7.61038,-13.32562c5.82876,-1.50491 13.08387,3.07388 15.072,10.77426z" fill="#ffffff" stroke="#000000" stroke-width="3" stroke-linecap="butt"/><path d="M273.76424,236.19808c0,0 4.74257,-2.55049 6.65421,-2.91812c1.37494,-0.26441 5.94579,-1.28188 5.94579,-1.28188" fill="none" stroke="#000000" stroke-width="2.5" stroke-linecap="round"/><path d="M277.16424,244.19808c0,0 4.16932,-2.18466 5.88,-3.04c1.61742,-0.80871 6.12,-0.56 6.12,-0.56" fill="none" stroke="#000000" stroke-width="3.5" stroke-linecap="round"/><path d="M299.45712,226.45737l8.91424,2.78141" fill="none" stroke="#000000" stroke-width="3.5" stroke-linecap="round"/><path d="M164.16424,269.99808c0,4.86011 -3.01147,8.6 -12.5,8.6c-5.68853,0 -8.1,-3.73989 -8.1,-8.6c0,-4.86011 4.61147,-8.8 10.3,-8.8c5.68853,0 10.3,3.93989 10.3,8.8z" fill="#ffffff" stroke="#000000" stroke-width="3" stroke-linecap="butt"/><path d="M296.56424,222.19808c0,0 0.71364,-5.05228 1.2098,-7.21414c0.42663,-1.85888 1.5902,-4.98586 1.5902,-4.98586" fill="none" stroke="#000000" stroke-width="3.5" stroke-linecap="round"/><path d="M315.16424,215.79808c0,0 -1.01008,-3.38561 -0.91219,-4.82129c0.10195,-1.49523 1.51219,-4.57871 1.51219,-4.57871" fill="none" stroke="#000000" stroke-width="2.5" stroke-linecap="round"/><path d="M325.76424,208.19808c0,0 -0.24115,1.8522 -0.67477,3.10489c-0.66467,1.92015 -3.32523,7.89511 -3.32523,7.89511" fill="none" stroke="#000000" stroke-width="3.5" stroke-linecap="round"/><path d="M315.36424,224.19808l-0.2,-6.8" fill="none" stroke="#000000" stroke-width="2.5" stroke-linecap="round"/><path d="M321.16424,226.39808l1.6,-1.2" fill="none" stroke="#000000" stroke-width="2.5" stroke-linecap="round"/><path d="M178.96424,265.79808c0,4.41828 -8.41735,13 -15.1,13c-10.88265,0 -11.1,-6.98172 -11.1,-11.4c0,-4.41828 7.61735,-8 14.3,-8c6.68265,0 11.9,1.98172 11.9,6.4z" fill="#ffffff" stroke="#000000" stroke-width="3" stroke-linecap="butt"/><path d="M249.56424,259.59808c0,6.4065 -13.25826,8.6 -30.6,8.6c-3.92647,0 -5.17498,3.41201 -10.25466,4.79995c-4.06328,1.11022 -8.61854,0.1491 -11.7027,-0.42786c-6.03998,-1.1299 -2.59236,-10.76971 -3.53839,-11.34409c-1.46017,-0.88653 -10.90424,0.69534 -11.10424,-4.028c-0.04212,-0.99471 0.91179,-1.08472 1.90691,-1.58513c3.38556,-1.70244 11.47806,-1.81016 18.98161,-3.65483c4.48311,-1.10213 5.83348,-7.16005 11.31149,-7.16005c5.53544,0 6.18043,3.50059 11.28243,4.70009c6.50385,1.52909 17.12533,1.06893 20.51268,3.80178c2.28015,1.83958 3.2049,4.54339 3.2049,6.29813z" fill="#ffffff" stroke="#000000" stroke-width="3" stroke-linecap="butt"/><path d="M186.96424,270.89808c0,4.58396 0.8663,7.5 -6.7,7.5c-5.21053,0 -14.3768,1.56558 -18.58321,-0.20198c-1.90179,-0.79915 -1.51679,-3.8708 -1.51679,-5.29802c0,-4.58396 6.3337,-9.1 13.9,-9.1c7.5663,0 12.9,2.51604 12.9,7.1z" fill="#ffffff" stroke="#000000" stroke-width="3" stroke-linecap="butt"/><path d="M167.76424,264.79808l6.2,4.8l0.4,9" fill="none" stroke="#000000" stroke-width="2" stroke-linecap="round"/><path d="M203.96424,252.19808l5.8,5.8l-1.2,14.2" fill="none" stroke="#000000" stroke-width="2" stroke-linecap="round"/><path d="M209.76424,261.19808l5.8,7.4" fill="none" stroke="#000000" stroke-width="2" stroke-linecap="round"/><path d="M231.08924,252.19808l2.2,7l-1,7.4" fill="none" stroke="#000000" stroke-width="2" stroke-linecap="round"/><path d="M233.28924,259.19808l-9.4,2.6l-1.4,-1.4" fill="none" stroke="#000000" stroke-width="2" stroke-linecap="round"/><path d="M224.08924,261.99808l-1.6,1.8" fill="none" stroke="#000000" stroke-width="2" stroke-linecap="round"/><path d="M235.28924,258.89808c0,2.26437 -0.67746,4.3 -2.5,4.3c-0.82992,0 -1.43712,-2.01475 -2.28806,-2.46248c-1.01774,-0.5355 -4.21194,1.79573 -4.21194,0.56248c0,-1.26166 2.63121,-2.43857 3.68262,-3.41063c0.83562,-0.77255 1.61032,-2.68937 2.41738,-2.68937c1.82254,0 2.9,1.43563 2.9,3.7z" fill="#000000" stroke="none" stroke-width="0" stroke-linecap="butt"/><path d="M309.56424,277.09808c0,2.35581 0.22341,6.3955 -1.70733,8.21121c-2.73138,2.56865 -7.77179,2.68879 -10.39267,2.68879c-4.47351,0 -3.7,-5.01147 -3.7,-10.7c0,-5.68853 1.62649,-11.1 6.1,-11.1c4.47351,0 9.7,5.21147 9.7,10.9z" fill="#ffffff" stroke="#000000" stroke-width="3" stroke-linecap="butt"/><path d="M275.17566,284.71968c-2.20509,8.95568 -4.72844,12.32701 -13.32746,10.20974c-7.23962,-1.78255 -13.04231,-3.49641 -10.83722,-12.45209c2.20509,-8.95568 17.1996,-17.35377 20.77921,-15.37805c4.13592,2.28277 5.59056,8.66472 3.38547,17.6204z" fill="#ffffff" stroke="#000000" stroke-width="3" stroke-linecap="butt"/><path d="M323.92743,266.40577c2.74244,4.2116 2.76444,11.18934 -0.19756,13.11809c-2.96201,1.92875 -10.38637,0.27813 -13.12881,-3.93347c-2.74244,-4.2116 -2.56444,-10.98934 0.39756,-12.91809c2.96201,-1.92875 10.18637,-0.47813 12.92881,3.73347z" fill="#ffffff" stroke="#000000" stroke-width="3" stroke-linecap="butt"/><path d="M294.56424,280.39808c0,6.95879 -3.33695,10.8 -7.7,10.8c-4.36305,0 -7.9,-1.84121 -7.9,-8.8c0,-6.95879 1.33695,-15.2 5.7,-15.2c4.36305,0 9.9,6.24121 9.9,13.2z" fill="#ffffff" stroke="#000000" stroke-width="3" stroke-linecap="butt"/><path d="M261.09785,246.14856l3.625,12.25l-4.875,0.875" fill="none" stroke="#000000" stroke-width="2" stroke-linecap="round"/><path d="M272.66119,291.07824l-6.64967,-4.3482l4.05637,-7.20236l-0.41615,-11.71065" fill="none" stroke="#000000" stroke-width="2" stroke-linecap="round"/><path d="M265.59785,286.89856l-8,2.875" fill="none" stroke="#000000" stroke-width="2" stroke-linecap="round"/><path d="M292.47285,273.89856l-5.75,7.125l-4.125,-0.25l-2.5,-5.125" fill="none" stroke="#000000" stroke-width="2" stroke-linecap="round"/><path d="M286.72285,280.77356l4.25,8.5" fill="none" stroke="#000000" stroke-width="2" stroke-linecap="round"/><path d="M296.34785,262.52356v-5.25l8.375,-2.75" fill="none" stroke="#000000" stroke-width="2" stroke-linecap="round"/><path d="M299.34785,255.64856l1.75,-4.625" fill="none" stroke="#000000" stroke-width="2" stroke-linecap="round"/><path d="M150.10214,176.03246c0.0239,1.19398 -0.15148,3.17692 1.04109,6.29701c1.02341,2.6775 3.48679,5.06472 2.76055,8.1944c-0.86049,3.70828 -6.49718,8.03102 -9.9707,8.57548c-2.00733,0.31464 -1.09388,-9.0486 -4.09476,-10.62918c-2.08853,-1.10004 -6.06094,-1.92879 -8.83517,-1.9837c-3.38572,-0.06702 -5.44029,0.75931 -5.78275,0.40809c-2.18718,-2.24316 -3.28328,-14.03892 -3.28328,-14.03892c0,0 10.17129,0.96676 17.88723,-4.43265c4.5529,-3.186 2.72001,-17.86074 8.53095,-18.60287c5.41786,-0.69193 8.20754,13.28701 6.90684,19.39001c-1.06671,5.00505 -5.18333,5.65563 -5.15998,6.82234z" fill="#ffffff" stroke="#000000" stroke-width="3" stroke-linecap="butt"/><g><path d="M133.30036,259.93847c8.17048,12.2845 4.95434,28.78749 -7.18345,36.86038c-12.13779,8.07293 -28.60093,4.65881 -36.77144,-7.62574c-8.17048,-12.28451 -4.95433,-28.78747 7.18345,-36.86038c12.13781,-8.07292 28.60093,-4.65879 36.77144,7.62576z" fill="#465e85" stroke="#000000" stroke-width="3" stroke-linecap="butt"/><path d="M139.96336,268.77351c0.12286,0.18473 -0.80023,8.09226 -2.67653,14.3336c-1.65969,5.52079 -4.28451,9.4862 -4.40025,9.31214c-0.1297,-0.19503 -3.73063,4.13436 -4.68217,2.56289c-0.72777,-1.20185 -1.76066,-7.58184 -1.93559,-9.42006c-0.16124,-1.69442 -0.02241,-4.20941 0.52948,-6.50837c0.43966,-1.8316 1.39464,-5.06451 3.50124,-7.91032c2.45532,-3.31692 5.29473,-5.942 5.79615,-6.12722c3.16202,-1.16829 3.49828,3.20208 3.86763,3.75742z" fill="#0d1522" stroke="#000000" stroke-width="3" stroke-linecap="butt"/><path d="M100.22039,271.93341c1.11909,0.70458 1.29034,2.43624 0.38253,3.86776c-0.90782,1.43152 -2.55095,2.02079 -3.67007,1.3162c-1.11909,-0.70458 -1.29038,-2.43622 -0.38254,-3.86777c0.90782,-1.43152 2.55098,-2.02081 3.67008,-1.31622z" fill="#6283b8" stroke="none" stroke-width="0" stroke-linecap="butt"/><path d="M186.87313,283.43486c4.47981,5.37001 2.23645,12.45465 -3.06286,16.87552c-5.29934,4.42088 -47.44731,-2.51667 -51.92717,-7.88669c-4.47983,-5.37001 -1.34296,-17.10556 3.95637,-21.52647c5.29934,-4.42088 46.55385,7.16761 51.03369,12.53761z" fill="#465e85" stroke="#000000" stroke-width="2.5" stroke-linecap="butt"/><path d="M92.03718,273.05127c1.44615,0.67811 1.87032,2.80665 0.9475,4.75424c-0.9228,1.9476 -2.84323,2.97674 -4.28938,2.29864c-1.44615,-0.67811 -1.87035,-2.80664 -0.94755,-4.75426c0.9228,-1.9476 2.84329,-2.97672 4.2894,-2.29864z" fill="#6283b8" stroke="none" stroke-width="0" stroke-linecap="butt"/><path d="M109.16344,301.25928c0,0 -7.15686,-0.11719 -10.335,-1.76404c-3.12485,-1.61922 -8.57662,-8.03567 -8.57662,-8.03567c0,0 11.98551,-7.15158 17.80809,-11.94811c6.56116,-5.40498 19.60853,-18.87489 19.60853,-18.87489c0,0 2.49705,0.44055 2.30174,2.24181c-0.60535,5.58243 -6.41131,35.65678 -6.41131,35.65678z" fill="#313243" stroke="none" stroke-width="0" stroke-linecap="butt"/><path d="M105.98188,246.18175c0,0 7.26421,3.27099 10.2204,5.48949c3.34139,2.5076 8.81424,8.79534 8.81424,8.79534" fill="none" stroke="#000000" stroke-width="2" stroke-linecap="round"/><path d="M86.82471,265.88077c0,0 12.13071,1.35876 17.73574,3.07792c5.67252,1.73988 16.09937,7.29999 16.09937,7.29999" fill="none" stroke="#000000" stroke-width="2" stroke-linecap="round"/><path d="M119.71674,282.36621c0,0 -10.38423,1.00729 -16.15985,-0.48502c-5.92453,-1.53078 -18.95189,-8.58713 -18.95189,-8.58713" fill="none" stroke="#000000" stroke-width="2" stroke-linecap="round"/><path d="M119.89971,286.58315c0,0 -7.6082,2.98468 -12.67097,3.11288c-5.38669,0.13643 -18.73774,-2.31729 -18.73774,-2.31729" fill="none" stroke="#000000" stroke-width="2" stroke-linecap="round"/><path d="M120.54913,291.85984c0,0 -6.59471,3.84998 -10.46785,4.70246c-4.14713,0.91279 -13.64931,0.60574 -13.64931,0.60574" fill="none" stroke="#000000" stroke-width="2" stroke-linecap="round"/><path d="M117.84836,298.90808c0,0 -3.55442,-5.25519 -5.25072,-11.16287c-1.43564,-4.99994 -1.13955,-10.47475 -0.36851,-13.55011c0.53602,-2.13809 2.34663,-5.73954 4.42373,-8.00571c4.78711,-5.22285 11.56977,-8.6615 11.56977,-8.6615" fill="none" stroke="#000000" stroke-width="2" stroke-linecap="round"/><path d="M105.9915,299.71542c0,0 -2.78658,-3.86784 -4.61227,-9.13942c-2.26448,-6.53849 -3.60889,-15.11122 -2.913,-19.66185c0.52004,-3.40089 2.58314,-8.29288 5.47789,-11.96589c4.24221,-5.38278 9.66628,-9.05604 9.66628,-9.05604" fill="none" stroke="#000000" stroke-width="2" stroke-linecap="round"/><path d="M90.11575,290.17996c0,0 -0.11425,-13.96549 1.83458,-22.6847c1.94882,-8.71926 6.79807,-15.9387 6.79807,-15.9387" fill="none" stroke="#000000" stroke-width="2" stroke-linecap="round"/><path d="M136.79914,265.40596c0.32381,0.48686 -6.35643,3.02856 -9.09661,10.78266c-2.91894,8.25992 1.82654,21.28891 1.48158,20.77028c-0.18144,-0.27278 -4.56903,5.35092 -5.90923,3.15929c-1.02501,-1.67614 -2.79102,-10.38553 -3.14054,-12.88674c-0.32218,-2.30556 -0.30935,-5.70244 0.25426,-8.77919c0.44901,-2.45128 1.47381,-6.76618 4.01979,-10.48012c2.96742,-4.32871 6.47972,-7.69489 7.11848,-7.91241c4.02817,-1.37171 4.75573,4.56956 5.2723,5.34625z" fill="#465e85" stroke="#000000" stroke-width="3" stroke-linecap="butt"/><path d="M122.43754,298.90975c-11.66529,5.50081 -26.31281,1.88968 -33.75307,-9.29699c-8.17048,-12.28451 -4.29338,-29.22709 7.84447,-37.30002c11.3858,-7.57274 27.20928,-4.08786 35.79202,6.39502c0.30713,0.37513 -9.44321,7.10238 -11.80509,17.94611c-1.99764,9.17138 2.44626,22.0084 1.92168,22.25582z" fill="none" stroke="#000000" stroke-width="3" stroke-linecap="butt"/><path d="M93.83645,255.28023c0,0 12.72349,1.11546 17.40023,3.29476c4.87108,2.26987 11.26697,10.06369 11.26697,10.06369" fill="none" stroke="#000000" stroke-width="2" stroke-linecap="round"/><path d="M124.28357,286.48916c1.00386,0.12954 1.67445,1.34432 1.49772,2.71321c-0.17669,1.36887 -1.13371,2.37354 -2.13753,2.24398c-1.00384,-0.12956 -1.67442,-1.34432 -1.49772,-2.71321c0.1767,-1.3689 1.1337,-2.37356 2.13753,-2.24398z" fill="#6283b8" stroke="none" stroke-width="0" stroke-linecap="butt"/><path d="M123.90097,277.21856c1.07673,-0.40603 1.7931,0.62489 1.60012,2.3026c-0.19301,1.67769 -1.22233,3.36691 -2.29903,3.77294c-1.07673,0.40603 -1.79313,-0.62488 -1.60015,-2.30256c0.19301,-1.67769 1.22234,-3.36688 2.29903,-3.77293z" fill="#6283b8" stroke="none" stroke-width="0" stroke-linecap="butt"/><path d="M194.00562,295.98148c0.62724,0.38528 0.66728,1.46035 0.08934,2.40124c-0.57789,0.9409 -1.55493,1.3913 -2.18217,1.00601c-0.62724,-0.38528 -0.66727,-1.46035 -0.08932,-2.40123c0.57789,-0.9409 1.55492,-1.39128 2.18218,-1.00602z" fill="#6283b8" stroke="none" stroke-width="0" stroke-linecap="butt"/></g></g></g></svg>