<svg version="1.1" xmlns="http://www.w3.org/2000/svg" xmlns:xlink="http://www.w3.org/1999/xlink" width="491.4519" height="370.6875" viewBox="0,0,491.4519,370.6875"><g transform="translate(5.72595,6.34375)"><g data-paper-data="{&quot;isPaintingLayer&quot;:true}" fill-rule="nonzero" stroke="none" stroke-linecap="butt" stroke-linejoin="miter" stroke-miterlimit="10" stroke-dasharray="" stroke-dashoffset="0" style="mix-blend-mode: normal"><path d="M-5.72595,364.34375v-370.6875h491.4519v370.6875z" fill="#000000" stroke-width="0"/><text transform="translate(117.5,151.15625) scale(0.5,0.5)" font-size="40" xml:space="preserve" fill="#ffffff" fill-rule="nonzero" stroke="none" stroke-width="1" stroke-linecap="butt" stroke-linejoin="miter" stroke-miterlimit="10" stroke-dasharray="" stroke-dashoffset="0" font-family="Pixel" font-weight="normal" text-anchor="start" style="mix-blend-mode: normal"><tspan x="0" dy="0">       Congratulations!</tspan><tspan x="0" dy="46.150000000000006px">You got a new Hi-score!</tspan><tspan x="0" dy="46.150000000000006px"> </tspan><tspan x="0" dy="46.150000000000006px">  Press      to play again</tspan></text><path d="M217.412,202.27684v11.19423c0,0.22211 -0.08884,0.44421 -0.26653,0.53306c-1.42149,1.2438 -3.19834,1.8657 -5.01963,1.8657c-1.82128,0 -3.59814,-0.66633 -5.01963,-1.8657c-1.15496,-0.97727 -2.57644,-1.55476 -4.08678,-1.55476c-1.37707,0 -2.70971,0.44421 -3.82026,1.33264v7.4184c0,0.44421 -0.35537,0.79959 -0.79959,0.79959c-0.44421,0 -0.79959,-0.35537 -0.79959,-0.79959v-18.92357c0,-0.35537 0.22211,-0.57748 0.44421,-0.71074c1.42149,-1.15496 3.1095,-1.77686 4.88637,-1.77686c1.82128,0 3.64256,0.66633 5.06406,1.8657c1.15496,0.97727 2.57644,1.51033 4.08678,1.51033c1.51033,0 2.93182,-0.53306 4.08678,-1.51033c0.26653,-0.17769 0.57748,-0.22211 0.84401,-0.08884c0.26653,0.13327 0.3998,0.3998 0.3998,0.71074z" fill="#549a10" stroke-width="1"/><text transform="translate(62.69443,295.91123) scale(0.30513,0.30513)" font-size="40" xml:space="preserve" fill="#ffffff" fill-rule="nonzero" stroke="none" stroke-width="1" stroke-linecap="butt" stroke-linejoin="miter" stroke-miterlimit="10" stroke-dasharray="" stroke-dashoffset="0" font-family="Pixel" font-weight="normal" text-anchor="start" style="mix-blend-mode: normal"><tspan x="0" dy="0">Hi-score:</tspan></text></g></g></svg>