<svg version="1.1" xmlns="http://www.w3.org/2000/svg" xmlns:xlink="http://www.w3.org/1999/xlink" width="381" height="286" viewBox="0,0,381,286"><g transform="translate(-59,-48.50003)"><g data-paper-data="{&quot;isPaintingLayer&quot;:true}" fill-rule="nonzero" stroke-linejoin="miter" stroke-miterlimit="10" stroke-dasharray="" stroke-dashoffset="0" style="mix-blend-mode: normal"><path d="M152.26473,182.25937c-0.16128,1.18327 -0.64161,3.11514 0.05341,6.38227c0.59644,2.80368 2.66043,5.54358 1.45831,8.52304c-1.42435,3.5303 -7.66245,6.92802 -11.17839,6.92802c-2.03184,0 0.32054,-9.10884 -2.39938,-11.13506c-1.89298,-1.41019 -5.68914,-2.84409 -8.42141,-3.32794c-3.3345,-0.59051 -5.49225,-0.0923 -5.77619,-0.49232c-1.81343,-2.5548 -1.06968,-14.37801 -1.06968,-14.37801c0,0 9.89889,2.53017 18.35788,-1.60925c4.99135,-2.44252 5.45302,-17.22408 11.30879,-17.05741c5.45965,0.15539 6.05098,14.39771 3.82088,20.22567c-1.8289,4.77949 -5.99661,4.78474 -6.15421,5.94099z" fill="#ffffff" stroke="#000000" stroke-width="3" stroke-linecap="butt"/><text transform="translate(207,109.5) scale(0.26887,0.26887)" font-size="40" xml:space="preserve" fill="#000000" fill-rule="nonzero" stroke="none" stroke-width="1" stroke-linecap="butt" stroke-linejoin="miter" stroke-miterlimit="10" stroke-dasharray="" stroke-dashoffset="0" font-family="Sans Serif" font-weight="normal" text-anchor="start" style="mix-blend-mode: normal"><tspan x="0" dy="0">MeIzAwezomeDede</tspan><tspan x="0" dy="46.150000000000006px"> </tspan><tspan x="0" dy="46.150000000000006px">AwezomeXD</tspan></text><path d="M59,334.50003v-286h381v286z" fill="none" stroke="none" stroke-width="0" stroke-linecap="butt"/><path d="M327.5,111.33119c0,0.33362 0.60127,3.23255 -0.21271,5.4458c-0.93002,2.52879 -3.08111,7.13136 -3.08111,7.13136c0,0 4.34521,-0.2081 4.40197,0.76038c0.2744,4.6822 0.12383,8.60892 0.12383,8.60892c0,0 28.74557,-1.56768 33.42111,3.69812c6.87404,7.74184 -1.07643,14.63515 -1.37264,17.9257c-0.21168,2.3516 -11.67226,0.44163 -21.5431,-3.37909c-7.51873,-2.91028 -14.1151,-7.7688 -14.1151,-7.7688c0,0 -6.21199,14.69262 -8.93219,18.88644c-2.54389,3.92198 -10.32822,-1.86165 -10.32822,-1.86165c0,0 -2.50399,9.18522 -6.31374,17.00986c-3.50301,7.19465 -8.38815,13.02262 -7.32536,14.26246c2.71151,3.16321 3.07356,7.30597 6.80581,10.73182c1.98413,1.82125 11.44142,-3.28027 19.82487,-3.86358c7.02392,-0.48871 13.17483,3.44594 14.6965,5.19245c3.83514,4.4018 7.28486,9.37582 9.94883,14.52042c1.6903,3.26427 -6.79818,5.4523 -6.54027,17.65883c0.15423,7.29942 -2.82727,8.66321 -5.84071,10.35033c-2.75846,1.54437 -5.41537,1.15823 -9.39564,0.74811c-7.52442,-0.77529 -0.90622,-14.19567 -4.09582,-14.42324c-2.09485,-0.14946 -7.29351,11.85729 -9.58036,11.62593c-1.98733,-0.20105 12.3836,5.28808 26.69809,13.24789c3.82537,2.12716 7.38215,1.95699 9.87508,5.95018c2.42735,3.88815 0.9393,21.37497 -0.54216,23.13021c-0.65799,0.77959 -15.4488,18.83963 -74.61214,17.08413c-37.22836,-1.10465 -26.06232,-26.63436 -26.06232,-26.63436c0,0 -94.64299,18.32812 -106.15928,2.75316c-3.61551,-4.88972 2.86536,-17.44258 14.16828,-26.04428c11.52594,-8.77141 28.91466,-14.3458 28.91466,-14.3458c0,0 -3.69215,-4.42171 -3.14355,-6.98485c1.22164,-5.70776 11.53759,-6.64124 11.53759,-6.64124c0,0 6.3717,-10.71722 5.91893,-10.64844c-26.6329,4.04576 -33.72669,-8.75858 -33.72669,-8.75858c0,0 -4.01891,3.83665 -7.04511,5.59538c-2.71165,1.57592 -9.53626,2.93602 -11.01734,2.93602c-0.05753,0 -6.9873,4.34343 -16.91106,2.51165c-2.86977,-2.79036 -6.25818,-5.23594 -8.2809,-8.24474c-1.20293,-1.78936 -2.03761,-3.96847 -3.02821,-6.07029c0.00525,-3.96035 -0.96982,-5.83315 -0.96982,-5.83315c0,0 -4.96649,-4.62482 -5.72902,-4.89596c-1.48374,-0.52759 -0.89809,-3.25577 -1.08089,-6.23012c1.16265,-3.38419 1.06531,-7.51865 -0.05711,-10.55835c0.61868,-0.89519 1.26346,-2.03064 1.32598,-3.11097c0.12074,-2.08633 2.42721,-1.95136 3.1509,-2.31087c1.56357,-0.77674 2.15776,-0.19378 2.5747,-3.47021c0.52217,-4.10335 -4.30858,-10.88246 -3.46271,-14.74228c1.96946,-8.98691 5.24278,-14.36368 7.8302,-20.46227c3.06737,-7.22985 30.38715,14.53609 30.10699,10.28926c-0.33043,-5.00884 0.35653,-9.16894 1.32268,-9.91645c0.15103,-0.11685 22.43122,-4.48904 29.37514,4.95924c6.09014,8.28659 -1.47779,32.12067 0.7017,36.96281c3.56087,7.91113 7.00269,16.95138 8.49242,16.73897c4.26902,-0.6087 7.9223,0.74131 11.79466,-2.31674c2.2598,-1.78459 -0.51879,-6.80501 1.94217,-8.05159c2.51726,-1.2751 18.52453,-0.47958 18.52453,-0.47958l0.71326,-5.19649c0,0 -26.56153,-0.22746 -32.71984,-3.3445c-3.09482,-1.56645 -6.45421,-12.21834 -2.61978,-17.90168c3.86815,-5.73333 14.94413,-6.4916 14.94413,-6.4916c0,0 -8.19012,-53.05123 -8.19012,-71.3341c0,-18.26197 9.13554,-21.58565 24.8071,-24.03821c12.64664,-1.97917 29.54963,-1.11179 49.3429,-1.11179c18.66167,0 43.55365,10.23728 46.46605,25.96267c0.19945,1.07694 14.28395,30.55629 14.28395,34.78734z" fill="#3333cc" stroke="none" stroke-width="NaN" stroke-linecap="butt"/><path d="M230.63232,234.2834c0,4.25644 9.88429,9.61011 12.39366,13.47424c0.64097,0.98702 5.20076,5.67685 4.59175,6.42639c-0.44193,0.5439 -5.29952,-2.9546 -5.77321,-2.4936c-3.21514,3.12907 -7.17217,4.59297 -12.0122,4.59297c-2.17086,0 -8.65714,10.7001 -21.32134,16.56972c-8.03553,3.72432 -22.02322,3.1143 -27.87558,4.24622c-9.48084,1.83371 -19.56228,-12.61733 -20.63985,-14.06532c-0.32078,-0.43105 13.66715,-5.4238 22.70669,-8.52905c12.65293,-4.34652 32.55403,-5.70124 32.24675,-6.59285c-0.99447,-2.88561 -1.71667,-9.89942 -1.71667,-13.22872c0,-6.06045 3.7427,-11.31552 7.48083,-15.11718c3.34746,-3.40435 4.21393,-4.88282 9.11917,-4.88282c3.03631,0 36.36735,-7.04633 41.19868,-4.75413c0.73703,0.34968 -0.34396,7.08582 2.47099,12.51802c0.56763,1.09539 3.95542,0.64348 4.55448,1.82385c3.15763,6.22175 6.96699,13.00981 12.98491,19.80423c7.96969,8.99804 23.79227,14.02695 27.9578,20.4873c2.84765,4.41645 2.03075,7.72531 1.03489,8.56111c-0.60613,0.50871 -29.2611,12.21148 -44.32075,17.41524c-8.58612,2.96688 -14.17873,-4.40859 -19.47849,-5.2711c-6.25438,-1.01787 3.88093,-23.36356 3.24194,-24.49683c-1.25629,-2.22809 -2.92563,-2.90386 -3.42941,-6.18221c-0.40237,-2.61846 0.60096,-3.48926 0.94134,-6.5104c0.5087,-4.5151 1.32351,-9.51928 0.88003,-12.13682c-0.47045,-2.77679 -2.67555,-3.22217 -3.10271,-3.1903c-2.38668,0.17807 -24.13371,-1.85701 -24.13371,1.53204z" fill="#000000" stroke="none" stroke-width="0" stroke-linecap="butt"/><path d="M303.16424,222.59808c0,5.85422 -8.75461,8 -16.1,8c-3.65287,0 -5.46502,1.69732 -7.57033,-2.1421c-2.12815,-3.88109 -1.92967,-11.71499 -1.92967,-14.6579c0,-5.85422 4.75461,-2.8 12.1,-2.8c7.34539,0 13.5,5.74578 13.5,11.6z" fill="#000000" stroke="none" stroke-width="0" stroke-linecap="butt"/><path d="M153.76424,276.89808c0,3.03757 -6.97289,3.5 -9.9,3.5c-2.92711,0 -3.7,-0.86243 -3.7,-3.9c0,-3.03757 2.17289,-6.3 5.1,-6.3c2.92711,0 8.5,3.66243 8.5,6.7z" fill="#ffffff" stroke="#000000" stroke-width="3" stroke-linecap="butt"/><path d="M309.56424,259.59808c0.13406,0.76623 -0.00108,1.36865 -0.33408,1.84284c-0.61087,0.86988 -1.13756,2.68321 -2.63956,2.90955c-2.56514,0.38656 -6.53743,-1.22016 -8.22266,-0.97648c-6.31099,0.91256 -1.67033,3.08162 -7.21298,2.88216c-2.28986,-0.0824 -4.99048,-1.96949 -7.18927,-1.99299c-2.40472,-0.0257 -4.68763,2.13492 -6.70144,2.13492c-3.56054,0 -2.70691,-1.16302 -6.62589,-2.40171c-3.74187,-1.18271 -3.07644,3.36561 -8.95492,2.59144c-3.38971,-0.44641 -1.66017,-4.06395 -2.53699,-6.71777c-0.59145,-1.79008 -1.38219,-2.75116 -1.38219,-5.27196c0,-8.39473 8.71542,-15.8 20.7,-15.8c6.48761,0 13.81647,4.77661 20.64243,9.38923c5.78365,3.90829 9.79397,7.61797 10.45757,11.41077z" fill="#ffffff" stroke="#000000" stroke-width="3" stroke-linecap="butt"/><path d="M266.57219,164.65445c0,2.41862 2.22283,9.73658 -0.35709,13.11381c-0.7692,1.00691 8.70277,-0.91628 8.20195,3.13761c-1.17566,9.51634 -5.20139,30.16524 -8.84486,30.16524c-0.75199,0 3.98289,-0.28972 3.98289,-0.28972l2.52924,13.33304c0,0 -5.84048,3.23724 -9.35754,4.07246c-11.26136,2.67433 -32.62743,5.39535 -44.16636,3.4542c-4.12741,-0.69434 6.43154,-13.74342 4.35766,-14.44065c-3.77582,-1.26942 1.06155,-22.43396 0.47875,-22.46477c-2.37203,-0.1254 12.69348,-14.42189 11.31523,-15.63409c-3.10067,-2.72711 -2.13986,-9.79012 -2.13986,-12.11381c0,-4.83249 8.09864,-3.91667 18.5,-3.91667c10.40136,0 15.5,-3.24916 15.5,1.58333z" fill="#000000" stroke="none" stroke-width="0" stroke-linecap="butt"/><path d="M147.66473,182.44271c0,2.33858 5.66466,6.26819 5.40375,8.20051c-1.37071,10.15169 -6.20705,14.85795 -13.0908,15.81332c-0.90345,0.12538 -8.24217,3.78617 -9.21295,3.78617c-5.33156,0 -5.64799,-1.05093 -9.37984,-7.73198c-1.52183,-2.72449 -2.58014,-5.01984 -3.46851,-8.33545c-0.2747,-1.02525 -5.37028,-1.69272 -6.21329,-3.34844c-2.00301,-3.93401 -0.63836,-10.53083 -0.63836,-13.18413c0,-4.21036 5.85386,-3.29298 6.99293,-6.73472c0.28436,-0.85919 0.59895,-1.69091 0.94115,-2.49339c0.92999,-2.18085 -2.53608,-7.54578 -1.25088,-9.25948c3.65318,-4.87117 13.12863,-4.31241 18.0168,-4.31241c2.17418,0 7.65631,-0.95419 11.70772,-0.76744c1.84468,0.08504 9.79276,-8.79339 10.59693,-8.03751c0.58436,0.54927 5.19414,6.97109 5.46042,7.6573c2.18097,5.62045 -15.86507,18.961 -15.86507,28.74764z" fill="#000000" stroke="none" stroke-width="0" stroke-linecap="butt"/><g><path d="M159.00607,137.83847c-7.06502,12.95188 -23.16658,17.79255 -35.96377,10.8119c-12.79722,-6.98063 -17.44414,-23.13914 -10.37909,-36.09107c7.06503,-12.95189 23.16656,-17.79253 35.96377,-10.8119c12.79722,6.98065 17.44412,23.13915 10.37907,36.09108z" fill="#465e85" stroke="#000000" stroke-width="3" stroke-linecap="butt"/><path d="M154.29135,147.84972c-0.10624,0.19476 -7.5336,3.06103 -13.93052,4.30773c-5.65841,1.10277 -10.38999,0.62704 -10.28987,0.44354c0.11217,-0.20561 -5.39614,-1.37558 -4.44874,-2.94955c0.72455,-1.2038 5.88913,-5.08943 7.43431,-6.10042c1.4243,-0.9319 3.71449,-1.98046 6.0059,-2.56288c1.82557,-0.46405 5.13119,-1.12479 8.63066,-0.58615c4.07878,0.62779 7.72424,1.91771 8.12169,2.27515c2.50661,2.25393 -1.20413,4.58709 -1.52352,5.17259z" fill="#0d1522" stroke="#000000" stroke-width="3" stroke-linecap="butt"/><path d="M132.98394,114.15279c-0.10224,1.31846 -1.55483,2.27656 -3.24443,2.14c-1.6896,-0.13657 -2.97637,-1.31612 -2.87413,-2.63461c0.10224,-1.31846 1.5548,-2.27659 3.24443,-2.14001c1.6896,0.13657 2.9764,1.31614 2.87415,2.63461z" fill="#6283b8" stroke="none" stroke-width="0" stroke-linecap="butt"/><path d="M163.16676,196.18924c-2.66537,6.46541 -9.9795,7.78008 -16.35982,5.14982c-6.38034,-2.63028 -19.87266,-43.15853 -17.2073,-49.62398c2.66536,-6.46543 14.51127,-9.1557 20.89164,-6.52544c6.38034,2.63028 15.34087,44.53418 12.67553,50.99961z" fill="#465e85" stroke="#000000" stroke-width="2.5" stroke-linecap="butt"/><path d="M128.18321,107.43211c0.07352,1.59555 -1.61247,2.96232 -3.76573,3.05284c-2.15326,0.09055 -3.95843,-1.1295 -4.03195,-2.72505c-0.07352,-1.59555 1.61245,-2.96234 3.76572,-3.05289c2.15326,-0.09055 3.95844,1.12956 4.03196,2.72506z" fill="#6283b8" stroke="none" stroke-width="0" stroke-linecap="butt"/><path d="M111.19878,135.72573c0,0 -3.22977,-6.38772 -3.25276,-9.96713c-0.02261,-3.51938 3.11604,-11.33229 3.11604,-11.33229c0,0 11.91099,7.27502 18.86746,10.19335c7.8389,3.2885 25.83559,8.56026 25.83559,8.56026c0,0 0.77321,2.41485 -0.9117,3.08099c-5.22187,2.06447 -34.53905,10.93457 -34.53905,10.93457z" fill="#313243" stroke="none" stroke-width="0" stroke-linecap="butt"/><path d="M158.45523,107.25673c0,0 0.48896,7.95167 -0.09729,11.60093c-0.66266,4.12478 -3.6776,11.89639 -3.6776,11.89639" fill="none" stroke="#000000" stroke-width="2" stroke-linecap="round"/><path d="M132.1006,99.47975c0,0 4.44778,11.36739 5.53716,17.12804c1.10248,5.83003 1.03886,17.64654 1.03886,17.64654" fill="none" stroke="#000000" stroke-width="2" stroke-linecap="round"/><path d="M132.83278,136.26451c0,0 -5.72805,-8.71988 -7.09762,-14.52583c-1.40489,-5.95564 -1.22849,-20.77026 -1.22849,-20.77026" fill="none" stroke="#000000" stroke-width="2" stroke-linecap="round"/><path d="M129.18641,138.39056c0,0 -6.18485,-5.34235 -8.6564,-9.7627c-2.6297,-4.70316 -6.67695,-17.66044 -6.67695,-17.66044" fill="none" stroke="#000000" stroke-width="2" stroke-linecap="round"/><path d="M124.81953,141.42297c0,0 -6.4785,-4.04247 -9.03687,-7.07277c-2.73935,-3.24466 -6.8935,-11.7962 -6.8935,-11.7962" fill="none" stroke="#000000" stroke-width="2" stroke-linecap="round"/><path d="M117.32457,142.31593c0,0 2.99479,-5.59305 7.43243,-9.84575c3.75579,-3.59924 8.73838,-5.88725 11.81891,-6.63737c2.14167,-0.52154 6.17194,-0.59678 9.14474,0.18573c6.85143,1.80347 13.05348,6.20385 13.05348,6.20385" fill="none" stroke="#000000" stroke-width="2" stroke-linecap="round"/><path d="M111.08755,132.19977c0,0 2.12476,-4.26739 5.93924,-8.33831c4.7312,-5.0493 11.69106,-10.23192 16.04206,-11.73568c3.25168,-1.12386 8.54156,-1.57677 13.14012,-0.72598c6.73915,1.2468 12.51602,4.33567 12.51602,4.33567" fill="none" stroke="#000000" stroke-width="2" stroke-linecap="round"/><path d="M112.13102,113.70989c0,0 12.30491,-6.60585 20.92829,-8.94249c8.62342,-2.33668 17.27058,-1.40817 17.27058,-1.40817" fill="none" stroke="#000000" stroke-width="2" stroke-linecap="round"/><path d="M155.7975,143.48117c-0.28,0.51331 -5.64064,-4.21421 -13.77858,-3.02736c-8.6688,1.26426 -17.9879,11.53211 -17.68963,10.98529c0.15688,-0.28761 -6.86318,-1.55084 -5.54803,-3.75759c1.0058,-1.68773 7.89022,-7.30708 9.94075,-8.78137c1.89014,-1.35897 4.90203,-2.92979 7.88717,-3.86411c2.37828,-0.74441 6.67388,-1.84732 11.14621,-1.32423c5.21264,0.60969 9.82732,2.14986 10.31732,2.61379c3.09005,2.92564 -1.82853,6.33674 -2.27522,7.15562z" fill="#465e85" stroke="#000000" stroke-width="3" stroke-linecap="butt"/><path d="M119.4606,146.37768c-10.30107,-7.76054 -13.92798,-22.40416 -7.49432,-34.19852c7.06503,-12.95189 23.86344,-17.41242 36.66069,-10.43173c12.00435,6.54817 16.29071,22.17359 11.01197,34.65114c-0.1889,0.4465 -10.68332,-5.04824 -21.37908,-2.08756c-9.04624,2.50406 -18.33593,12.41562 -18.79921,12.06666z" fill="none" stroke="#000000" stroke-width="3" stroke-linecap="butt"/><path d="M144.74694,100.74701c0,0 4.93918,11.77862 5.18901,16.93215c0.2602,5.36768 -3.65755,14.65758 -3.65755,14.65758" fill="none" stroke="#000000" stroke-width="2" stroke-linecap="round"/><path d="M131.31147,142.22607c0.35294,0.94866 -0.40968,2.10787 -1.70333,2.58908c-1.29362,0.48123 -2.62841,0.10231 -2.98131,-0.84632c-0.35291,-0.94865 0.40969,-2.10785 1.70333,-2.58908c1.29365,-0.48123 2.62842,-0.10232 2.98131,0.84632z" fill="#6283b8" stroke="none" stroke-width="0" stroke-linecap="butt"/><path d="M139.33685,137.56951c0.86081,0.76369 0.28221,1.87778 -1.29229,2.48844c-1.57449,0.61063 -3.54872,0.48657 -4.40952,-0.27709c-0.86081,-0.76369 -0.28223,-1.8778 1.29224,-2.48845c1.57449,-0.61063 3.5487,-0.48655 4.40951,0.27709z" fill="#6283b8" stroke="none" stroke-width="0" stroke-linecap="butt"/><path d="M155.38632,208.34468c-0.04879,0.7345 -0.98147,1.27067 -2.08325,1.19749c-1.10177,-0.07313 -1.95541,-0.72794 -1.90662,-1.46244c0.04879,-0.7345 0.98148,-1.27066 2.08326,-1.19747c1.10177,0.07313 1.95539,0.72793 1.90663,1.46244z" fill="#6283b8" stroke="none" stroke-width="0" stroke-linecap="butt"/></g><path d="M147.76473,151.42604c0,4.82057 0.0513,7.26405 -1.1251,9.52166c-0.71049,1.36349 -1.23356,3.38459 -4.29157,3.14501c-19.1462,-1.5 -26.91666,-3.10135 -26.91666,-10.83333c0,-7.73199 6.00976,-14.74797 9.75,-15.83334c1.14024,-0.33088 8.28421,2.82216 13.37508,5.12672c5.63667,2.55163 9.20825,4.8106 9.20825,8.87328z" fill="#ffffff" stroke="#000000" stroke-width="3" stroke-linecap="butt"/><path d="M318.74253,115.22112c-0.27819,13.75441 -6.1579,26.5262 -16.11214,36.31788c-11.72481,11.53334 -74.43588,20.59879 -94.97119,20.59879c-16.63398,0 -19.70629,-6.19771 -17.86268,-15.68156c1.06129,-5.45946 18.42172,-6.08987 18.42172,-6.08987c0,0 -5.47199,-31.2002 -5.30905,-40.47857c0.66667,-37.96145 17.78042,-51.25 55.75,-51.25c37.96958,0 60.75,23.62189 60.08333,56.58333z" fill="#ffffff" stroke="#000000" stroke-width="3" stroke-linecap="butt"/><path d="M274.19048,205.63095c0.10552,2.49992 -9.71014,7.88101 -17.59134,11.81779c-4.5675,2.28153 -7.71045,4.41003 -9.90866,4.34888c-4.02107,-0.11186 -7.5885,-6.0609 -8.84158,-5.72018c-1.87258,0.50917 -11.0501,13.55927 -19.442,3.03207c-8.98928,-11.27658 -0.49377,-13.539 2.31618,-15.94041c0.68717,-0.58727 -0.01448,-2.29946 -0.03866,-2.46187c-0.36238,-2.43413 -1.82727,-2.71609 -1.82727,-5.07627c0,-0.33571 0.58921,-3.51646 0.75005,-3.8711c1.41369,-3.11723 7.86036,-3.95982 8.3851,-5.15947c0.57323,-1.31051 -5.32782,-7.34791 -0.32742,-10.39317c1.24166,-0.75617 2.78531,-0.68713 4.50376,-0.1703c4.90275,1.47455 6.56151,8.26071 11.35518,8.26071c1.16691,0 4.85658,1.23502 8.73581,-0.32403c3.28185,-1.31896 6.65198,-5.30101 9.23286,-6.89343c6.61471,-4.08133 13.51488,-9.52281 17.18565,-7.36507c6.88272,4.04576 -3.12222,13.6121 -1.73095,15.74149c3.24521,4.96688 -5.84629,14.68114 -5.79394,15.08166c0.2404,1.83908 2.95281,3.09248 3.03724,5.09271z" fill="#ffffff" stroke="#000000" stroke-width="3" stroke-linecap="butt"/><path d="M226.32587,126.88779l-10.42245,-7.76298c0,0 -2.22295,-25.59688 -1.79584,-27.92083c0.60181,-3.27452 0.02584,-5.83245 0.59806,-8.95731c1.31749,-7.19479 1.78689,-12.19222 1.78689,-12.19222" fill="none" stroke="#000000" stroke-width="2" stroke-linecap="round"/><path d="M243.70087,137.59612c0,9.31981 -14.10748,17.375 -22.875,17.375c-8.76752,0 -7.875,-4.80519 -7.875,-14.125c0,-9.31981 12.85748,-16.875 21.625,-16.875c8.76752,0 9.125,4.30519 9.125,13.625z" fill="#000000" stroke="none" stroke-width="0" stroke-linecap="butt"/><path d="M201.11754,157.38779c0,0 2.8943,-3.19268 4.21141,-4.11465c1.16389,-0.81473 3.12192,-2.46868 3.12192,-2.46868" fill="none" stroke="#000000" stroke-width="2" stroke-linecap="round"/><path d="M282.20087,137.84612c0,7.93909 -3.3387,13.625 -13.625,13.625c-10.2863,0 -19.625,-6.43591 -19.625,-14.375c0,-7.93909 6.3387,-15.625 16.625,-15.625c10.2863,0 16.625,8.43591 16.625,16.375z" fill="#000000" stroke="none" stroke-width="0" stroke-linecap="butt"/><path d="M294.61627,141.00683c0,0 3.69091,3.49293 4.4639,5.41436c0.87982,2.18696 0.5361,7.01421 0.5361,7.01421" fill="none" stroke="#000000" stroke-width="2" stroke-linecap="round"/><path d="M270.95087,149.97112c0,0 1.28383,3.00802 1.56478,4.85427c0.301,1.978 0.18522,6.64573 0.18522,6.64573" fill="none" stroke="#000000" stroke-width="2" stroke-linecap="round"/><path d="M277.04484,147.00683c0,0 2.5903,2.97423 3.49247,4.89424c0.95226,2.02661 2.07895,6.9629 2.07895,6.9629" fill="none" stroke="#000000" stroke-width="2" stroke-linecap="round"/><path d="M233.90552,164.82112c0,2.89949 1.5599,6.08333 -0.83333,6.08333c-1.34228,0 -5.26664,1.04151 -6.84428,-0.1655c-1.23522,-0.94503 -0.98906,-4.31124 -0.98906,-5.5845c0,-2.89949 0.77343,-5.91667 3.16667,-5.91667c2.39323,0 5.5,2.68384 5.5,5.58333z" fill="#ffffff" stroke="#000000" stroke-width="3" stroke-linecap="butt"/><path d="M241.90552,162.07112c0,1.69134 0.63298,4.39032 -0.23126,5.50442c-0.87603,1.1293 -3.92501,1.66224 -5.26874,1.66224c-2.66938,0 -3,-2.92758 -3,-6.33333c0,-3.40576 0.49729,-6.16667 3.16667,-6.16667c2.66938,0 5.33333,1.92758 5.33333,5.33333z" fill="#ffffff" stroke="#000000" stroke-width="3" stroke-linecap="butt"/><path d="M249.73885,162.48778c0,1.45944 0.4071,3.78408 -0.28599,4.75808c-0.7276,1.0225 -4.41595,0.49192 -5.54734,0.49192c-2.20914,0 -2.16667,-2.25846 -2.16667,-5.25c0,-2.99154 1.45753,-5.58333 3.66667,-5.58333c2.20914,0 4.33333,2.59179 4.33333,5.58333z" fill="#ffffff" stroke="#000000" stroke-width="3" stroke-linecap="butt"/><path d="M257.90552,162.40445c0,3.12961 1.19171,5.16667 -0.83333,5.16667c-1.33262,0 -5.38761,0.85669 -6.52316,-0.58909c-0.59004,-0.75123 0.02316,-2.67412 0.02316,-3.74424c0,-3.12961 1.64162,-7.33333 3.66667,-7.33333c2.02504,0 3.66667,3.37039 3.66667,6.5z" fill="#ffffff" stroke="#000000" stroke-width="3" stroke-linecap="butt"/><path d="M266.90552,160.82112c0,1.41633 0.8647,4.44541 -0.04988,5.5597c-1.31437,1.60138 -4.53888,1.02363 -5.95012,1.02363c-2.39323,0 -2.5,-3.13155 -2.5,-6.58333c0,-3.45178 1.9401,-5.91667 4.33333,-5.91667c2.39323,0 4.16667,2.46489 4.16667,5.91667z" fill="#ffffff" stroke="#000000" stroke-width="3" stroke-linecap="butt"/><path d="M247.42857,179.85715c0,2.13024 0.72081,3.57143 -0.85714,3.57143c-1.02952,0 -3.05058,0.63267 -3.93389,-0.51221c-0.47055,-0.60989 -0.20897,-2.74739 -0.20897,-3.48779c0,-2.13024 -0.14938,-3.28572 1.42857,-3.28572c1.57796,0 3.57143,1.58405 3.57143,3.71429z" fill="#ffffff" stroke="#000000" stroke-width="3" stroke-linecap="butt"/><path d="M254.42857,178.85715c0,2.13024 0.35621,4.42857 -1.14285,4.42857c-1.00087,0 -3.40188,0.83261 -4.5074,-0.4824c-0.55029,-0.65455 -0.34974,-3.23821 -0.34974,-3.94617c0,-0.83933 -0.04032,-2.09877 0.52192,-2.62439c0.86475,-0.80843 3.14109,-0.66133 4.04951,-0.66133c1.49906,0 1.42857,1.15548 1.42857,3.28572z" fill="#ffffff" stroke="#000000" stroke-width="3" stroke-linecap="butt"/><path d="M242.98535,190.6566c-0.99128,2.37908 -4.1878,-0.06437 -7.75641,-1.55129c-3.56861,-1.48692 -5.99128,-4.78759 -5,-7.16666c0.99128,-2.37908 5.1878,-1.93564 8.75641,-0.44872c1.54697,0.64457 3.35735,1.50582 4.07597,3.03506c0.93912,1.99847 0.4856,4.78386 -0.07597,6.13162z" fill="#000000" stroke="none" stroke-width="0" stroke-linecap="butt"/><path d="M242.93267,202.12585c-0.9645,2.48904 -5.73257,1.92466 -10.23858,0.17857c-4.50601,-1.74608 -7.71031,-6.01266 -6.74581,-8.50169c0.9645,-2.48904 5.73256,-1.09132 10.23858,0.65476c4.50601,1.74608 7.71031,5.17933 6.74581,7.66836z" fill="#000000" stroke="none" stroke-width="0" stroke-linecap="butt"/><path d="M229.99423,208.87369c1.84554,2.29567 4.04659,5.29909 2.03789,6.91394c-2.0087,1.61485 -4.96652,0.06293 -6.81206,-2.23274c-1.84554,-2.29567 -4.71326,-4.63243 -2.70455,-6.24727c2.0087,-1.61485 5.63319,-0.7296 7.47872,1.56607z" fill="#000000" stroke="none" stroke-width="0" stroke-linecap="butt"/><path d="M265.92154,204.45389c0.74394,2.37132 -3.3779,6.23351 -8.38403,7.80406c-5.00612,1.57055 -8.66748,2.25472 -9.41142,-0.1166c-0.74394,-2.37132 1.71124,-6.2335 6.71736,-7.80405c5.00612,-1.57055 10.33415,-2.25473 11.07809,0.11659z" fill="#000000" stroke="none" stroke-width="0" stroke-linecap="butt"/><path d="M269.37338,192.05887c0.72625,2.3768 -5.26394,7.25362 -11.11792,9.04234c-5.85397,1.78871 -9.35497,1.31198 -10.08121,-1.06483c-0.72625,-2.3768 3.9306,-5.42029 9.78458,-7.209c5.85397,-1.78871 10.68831,-3.14531 11.41455,-0.76851z" fill="#000000" stroke="none" stroke-width="0" stroke-linecap="butt"/><path d="M272.82534,179.80222c0.87318,2.52253 -6.00878,7.48315 -11.05383,9.22951c-5.04504,1.74636 -10.17606,1.61716 -11.04924,-0.90537c-0.87318,-2.52253 3.00879,-5.81647 8.05383,-7.56283c5.04504,-1.74636 13.17605,-3.28383 14.04923,-0.76131z" fill="#000000" stroke="none" stroke-width="0" stroke-linecap="butt"/><path d="M261.85715,175.71428c0,2.13024 -2.75888,4.14286 -4.92857,4.14286c-2.16969,0 -2.21429,-1.44119 -2.21429,-3.57143c0,-2.13024 1.47317,-2.42857 3.64286,-2.42857c2.16969,0 3.5,-0.2731 3.5,1.85714z" fill="#ffffff" stroke="#000000" stroke-width="3" stroke-linecap="butt"/><path d="M237.71429,176.21429c0,2.80087 0.68673,7.64286 -1.28571,7.64286c-1.97244,0 -5,-1.69913 -5,-4.5c0,-2.80087 0.17041,-5.21429 2.14286,-5.21429c1.97244,0 4.14285,-0.72944 4.14285,2.07143z" fill="#ffffff" stroke="#000000" stroke-width="3" stroke-linecap="butt"/><path d="M242.21429,179.71429c0,2.44583 0.55149,4.57143 -0.67143,4.57143c-0.74542,0 -2.42733,0.79805 -3.03587,-0.24824c-0.3898,-0.67022 -0.50699,-3.22534 -0.50699,-4.18033c0,-1.40088 0.18237,-3.22127 0.69004,-4.03277c0.37869,-0.60532 2.03033,-0.1101 2.55281,-0.1101c1.22292,0 0.97143,1.55417 0.97143,4z" fill="#ffffff" stroke="#000000" stroke-width="3" stroke-linecap="butt"/><path d="M213.85715,91.46429l18.33333,-30" fill="none" stroke="#000000" stroke-width="2" stroke-linecap="round"/><path d="M200.94048,150.88095l3.66667,3" fill="none" stroke="#000000" stroke-width="2" stroke-linecap="round"/><path d="M190.85715,154.79762l11.96236,8.55668c0,0 -1.11055,0.42114 -1.91952,0.48511c-1.39031,0.10993 -5.6696,0.11495 -5.6696,0.11495l-3.5399,3.50993" fill="none" stroke="#000000" stroke-width="2" stroke-linecap="round"/><path d="M281.19048,152.63095v-9.83333" fill="none" stroke="#000000" stroke-width="2" stroke-linecap="round"/><path d="M299.52381,145.79762l5.5,1.66666" fill="none" stroke="#000000" stroke-width="2" stroke-linecap="round"/><path d="M258.85715,193.96429l1.5,-7" fill="none" stroke="#000000" stroke-width="2" stroke-linecap="round"/><path d="M251.85715,198.29762c0,0 -2.42028,-1.68436 -3.1867,-2.81981c-0.73199,-1.08443 -1.3133,-3.84686 -1.3133,-3.84686" fill="none" stroke="#000000" stroke-width="2" stroke-linecap="round"/><path d="M236.35716,201.29762l-1.4392,4.34914c0,0 -1.67464,-0.70812 -2.89636,-0.35686c-1.43175,0.41164 -5.16445,2.67439 -5.16445,2.67439" fill="none" stroke="#000000" stroke-width="2" stroke-linecap="round"/><path d="M257.85715,216.63095l0.16666,-5.33333" fill="none" stroke="#000000" stroke-width="2" stroke-linecap="round"/><path d="M289.47362,180.18876c-2.31469,5.26676 -5.07795,9.39391 -7.81667,8.19027c-1.23336,-0.54205 -3.21762,-0.27093 -3.71559,-2.12234c-0.60778,-2.25968 1.3422,-6.69846 2.61449,-9.59337c1.36872,-3.11435 4.78477,-8.90595 7.36966,-9.73754c1.7865,-0.57474 2.16109,0.55536 3.28035,1.04727c2.73872,1.20364 0.58246,6.94894 -1.73224,12.21571z" fill="#ffffff" stroke="#000000" stroke-width="3" stroke-linecap="butt"/><path d="M258.19048,212.29762l3.33334,2.5" fill="none" stroke="#000000" stroke-width="2" stroke-linecap="round"/><path d="M280.59807,194.09271c0,2.39324 -1.29086,4.33333 -3.5,4.33333c-2.20914,0 -3.66667,-1.9401 -3.66667,-4.33333c0,-2.39324 1.95753,-4.16667 4.16667,-4.16667c2.20914,0 3,1.77343 3,4.16667z" fill="#ffffff" stroke="#000000" stroke-width="3" stroke-linecap="butt"/><path d="M215.0586,200.57565c0.5899,3.80244 -7.32124,4.4455 -13.20554,6.13175c-3.7486,1.07423 -3.62563,-3.46188 -4.54886,-6.93098c-0.92323,-3.46911 7.95695,-5.72419 13.87222,-7.29842c5.91527,-1.57423 3.33186,4.55023 3.88219,8.09765z" fill="#ffffff" stroke="#000000" stroke-width="3" stroke-linecap="butt"/><path d="M288.59807,209.67604c0,2.38252 -4.65336,6.25 -6.91667,6.25c-3.05399,0 -4.48909,-2.23398 -5.61755,-5.08722c-0.52112,-1.31761 -1.63245,-2.63616 -1.63245,-4.16278c0,-2.21611 1.46624,-3.4192 2.83476,-4.50546c1.61571,-1.28246 3.33153,-2.24454 5.74857,-2.24454c1.8515,0 2.79428,2.01251 3.65378,3.34732c1.21292,1.88366 1.92955,3.5744 1.92955,6.40268z" fill="#ffffff" stroke="#000000" stroke-width="3" stroke-linecap="butt"/><path d="M194.59807,204.00937c0,1.42067 0.1573,3.45623 -0.57342,4.48302c-0.76064,1.06883 -2.42778,1.10031 -3.34324,1.10031c-1.79493,0 -2.58334,-2.68384 -2.58334,-5.58334c0,-2.8995 0.78841,-5.25 2.58334,-5.25c1.79493,0 3.91666,2.3505 3.91666,5.25z" fill="#ffffff" stroke="#000000" stroke-width="3" stroke-linecap="butt"/><path d="M181.1814,211.09271c-7.40688,0.20889 -22.25,-14.99678 -22.25,-23.83334c0,-3.7911 10.18585,-7.66666 14.41666,-7.66666c3.36229,0 3.66469,6.61819 5.35294,13.68189c2.03232,8.5033 9.20856,17.22707 2.48039,17.81811z" fill="#ffffff" stroke="#000000" stroke-width="3" stroke-linecap="butt"/><path d="M169.4314,154.00937c0,8.97463 0.09083,14.76962 -6.16666,14.91667c-7.09256,0.16666 -15.5,-19.60871 -15.5,-28.58334c0,-2.82897 14.05173,-1.44863 18.33333,-1.25c3.59256,0.16666 3.33334,5.94204 3.33334,14.91667z" fill="#ffffff" stroke="#000000" stroke-width="3" stroke-linecap="butt"/><path d="M144.02473,194.41271c1.1598,3.97645 2.06363,12.30783 -2.16,16.21333c-4.12255,3.81204 -12.2002,5.62311 -16.19333,1.98c-3.05997,-2.79175 -5.27865,-11.54273 -0.17334,-13.88c0.30603,-0.14011 1.64569,-1.13434 2.01385,-1.31193c5.51493,-2.66017 15.4256,-6.72901 16.51282,-3.0014z" fill="#ffffff" stroke="#000000" stroke-width="3" stroke-linecap="butt"/><path d="M137.9314,183.67604c0,0.58943 -6.59493,9.33333 -9.58333,9.33333c-6.48934,0 -10.41667,-10.24078 -10.41667,-16.5c0,-6.25922 7.92732,-7.66666 14.41667,-7.66666c6.48935,0 5.58333,8.57411 5.58333,14.83333z" fill="#ffffff" stroke="#000000" stroke-width="3" stroke-linecap="butt"/><path d="M128.26473,160.22605c0,0 -0.04088,-8.34405 0.88333,-11.11667c0.96308,-2.88925 4.78334,-6.68334 4.78334,-6.68334" fill="none" stroke="#000000" stroke-width="3.5" stroke-linecap="round"/><path d="M152.56473,155.52604c0,0 7.3326,-4.74589 9.30967,-5.18813c2.2175,-0.49602 7.957,-0.04521 7.957,-0.04521" fill="none" stroke="#000000" stroke-width="3.5" stroke-linecap="round"/><path d="M143.25911,161.93658l-4.4,-7.4l7,-5" fill="none" stroke="#000000" stroke-width="2" stroke-linecap="round"/><path d="M128.52578,153.06991l1.8,-1l5.6,2.4" fill="none" stroke="#000000" stroke-width="2" stroke-linecap="round"/><path d="M139.79244,154.80325l-6.4,-1.2v-10.6" fill="none" stroke="#000000" stroke-width="2" stroke-linecap="round"/><path d="M127.20911,170.33658l-6.6,12.8" fill="none" stroke="#000000" stroke-width="2" stroke-linecap="round"/><path d="M181.4591,203.73658c0,0 -5.89214,1.87575 -7.44247,-0.43942c-0.81504,-1.21713 -3.41671,-6.48145 -3.41671,-6.48145l2.28255,-2.72487l-6.42336,-12.75426" fill="none" stroke="#000000" stroke-width="2" stroke-linecap="round"/><path d="M171.25911,188.73658l2.8,-7.2" fill="none" stroke="#000000" stroke-width="2" stroke-linecap="round"/><path d="M204.85911,195.13658l3.8,3.4l0.8,5.6" fill="none" stroke="#000000" stroke-width="2" stroke-linecap="round"/><path d="M233.66792,233.52025c-1.25439,3.01732 -6.51527,2.37878 -10.72253,0.62969c-4.20726,-1.74909 -7.10103,-6.61303 -5.84663,-9.63036c1.25439,-3.01732 6.18194,0.12123 10.3892,1.87032c4.20726,1.74909 7.43436,4.11302 6.17996,7.13035z" fill="#ffffff" stroke="#000000" stroke-width="3" stroke-linecap="butt"/><path d="M270.00119,230.27075c1.22391,2.8303 -1.11257,5.63169 -3.98511,6.87386c-2.87254,1.24218 -6.0267,1.95476 -7.25061,-0.87554c-1.22391,-2.8303 0.11257,-5.63169 2.98511,-6.87386c2.87254,-1.24218 7.0267,-1.95476 8.25061,0.87554z" fill="#ffffff" stroke="#000000" stroke-width="3" stroke-linecap="butt"/><path d="M212.25911,193.13658l-3.4,5" fill="none" stroke="#000000" stroke-width="2" stroke-linecap="round"/><path d="M255.8,226.51992c0,3.54382 -8.74489,7.27211 -11.66667,6.91666c-3.32958,-0.40506 -10.01499,-2.82054 -12.43383,-5.55992c-0.56695,-0.64209 -0.8995,-1.18383 -0.8995,-1.85674c0,-1.05104 0.41547,-1.52145 1.0724,-2.19946c1.55808,-1.60806 4.47445,-2.64941 6.4276,-2.88388c2.74364,-0.32937 4.92606,5.84189 7.20107,6.19c1.57389,0.24083 7.90296,-3.72622 9.35013,-2.64553c0.90945,0.67914 0.9488,1.25778 0.9488,2.03886z" fill="#ffffff" stroke="#000000" stroke-width="3" stroke-linecap="butt"/><path d="M272.46666,228.18658c0,3.56474 -2.09598,-0.18182 -6.36363,-0.18182c-4.26765,0 -9.72727,5.83747 -9.72727,2.27273c0,-3.56474 8.64144,-11.63637 12.90909,-11.63637c4.26765,0 3.18181,5.98071 3.18181,9.54546z" fill="#ffffff" stroke="#000000" stroke-width="3" stroke-linecap="butt"/><path d="M266.28485,240.00476c0,0.92234 -1.09541,3.08405 -2.61062,4.04077c-1.28913,0.81397 -2.95746,0.50468 -3.70756,0.50468c-1.63175,0 -1.31818,-2.20203 -1.31818,-3.90909c0,-1.70706 1.4137,-2.27272 3.04546,-2.27272c1.63175,0 4.59091,-0.0707 4.59091,1.63636z" fill="#ffffff" stroke="#000000" stroke-width="3" stroke-linecap="butt"/><path d="M221.14849,236.91385c-1.69135,0.16619 -15.04546,0.93052 -15.04546,-1.0909c0,-4.11703 2.43392,-12.54546 5.77273,-12.54546c1.57935,0 5.57736,2.8694 7.84931,6.08521c2.53104,3.58253 3.27379,7.36933 1.42342,7.55115z" fill="#ffffff" stroke="#000000" stroke-width="3" stroke-linecap="butt"/><path d="M235.83031,246.68658c0,2.78653 -6.50835,-0.22727 -11.63637,-1.5c-5.50641,-1.36664 -10.36363,-1.71347 -10.36363,-4.5c0,-2.78653 4.78107,-3.95454 10.45454,-3.95454c5.67347,0 11.54546,7.16801 11.54546,9.95454z" fill="#ffffff" stroke="#000000" stroke-width="3" stroke-linecap="butt"/><path d="M286.83031,184.15079l-1.93236,-3.12975l2.10874,-8.75143l-1.17639,-2.36883" fill="none" stroke="#000000" stroke-width="2" stroke-linecap="round"/><path d="M291.20531,173.15079l-4,0.125" fill="none" stroke="#000000" stroke-width="2" stroke-linecap="round"/><path d="M207.83031,228.90079l3,3.125l-0.25,4.125" fill="none" stroke="#000000" stroke-width="2" stroke-linecap="round"/><path d="M211.20531,231.40079l5.25,-3.625" fill="none" stroke="#000000" stroke-width="2" stroke-linecap="round"/><path d="M225.70531,233.52579l4.75,-4.125" fill="none" stroke="#000000" stroke-width="2" stroke-linecap="round"/><path d="M290.16424,240.19808c0,9.16792 -0.40558,15.6 -8.9,15.6c-2.0693,0 -3.61025,-0.11237 -4.75768,-1.02382c-2.43326,-1.93284 -0.1987,-5.55847 -0.2025,-10.17613c-0.00159,-1.93297 -3.73982,0.23032 -3.73982,-1.80005c0,-9.16792 4.20558,-22 11.3,-21.6c1.46877,0.08282 3.73162,1.73302 3.93959,3.99636c0.20677,2.25028 -1.6384,5.10663 -1.19739,7.63121c0.26046,1.49099 3.24775,0.49166 3.37098,2.14157c0.12795,1.7131 0.18682,3.47928 0.18682,5.23086z" fill="#ffffff" stroke="#000000" stroke-width="3" stroke-linecap="butt"/><path d="M329.56424,230.69808c0,6.7931 1.51401,9.9 -5.5,9.9c-4.90323,0 -1.02311,-8.61804 -4.26974,-13.48681c-1.71582,-2.57312 -8.14513,-0.98267 -10.62539,-2.61708c-2.22295,-1.46485 -1.60487,-5.18902 -1.60487,-6.79611c0,-6.7931 5.68599,-1.9 12.7,-1.9c7.01401,0 9.3,8.1069 9.3,14.9z" fill="#ffffff" stroke="#000000" stroke-width="3" stroke-linecap="butt"/><path d="M333.36424,214.69808c0,2.65976 3.59573,6.78083 -4.45196,10.39281c-5.76159,2.58593 -5.56865,-6.69281 -13.44804,-8.29281c-7.41497,-1.5057 -12.3,2.59442 -12.3,-2.1c0,-4.69442 8.9337,-8.5 16.5,-8.5c7.5663,0 13.7,3.80558 13.7,8.5z" fill="#ffffff" stroke="#000000" stroke-width="3" stroke-linecap="butt"/><path d="M309.76424,223.79808c0,7.9529 -6.28009,16.4 -12.3,16.4c-3.06493,0 -4.87889,-1.21913 -6.70659,-5.2327c-1.03296,-2.26836 8.01971,-6.82072 7.61263,-10.32294c-0.43703,-3.75985 -11.20605,-2.42899 -11.20605,-4.04436c0,-7.9529 4.68009,-11 10.7,-11c6.0199,0 11.9,6.2471 11.9,14.2z" fill="#ffffff" stroke="#000000" stroke-width="3" stroke-linecap="butt"/><path d="M273.76424,236.19808c0,0 4.74257,-2.55049 6.65421,-2.91812c1.37494,-0.26441 5.94579,-1.28188 5.94579,-1.28188" fill="none" stroke="#000000" stroke-width="2.5" stroke-linecap="round"/><path d="M277.16424,244.19808c0,0 4.16932,-2.18466 5.88,-3.04c1.61742,-0.80871 6.12,-0.56 6.12,-0.56" fill="none" stroke="#000000" stroke-width="3.5" stroke-linecap="round"/><path d="M298.76424,225.39808l6.8,6.4" fill="none" stroke="#000000" stroke-width="3.5" stroke-linecap="round"/><path d="M164.16424,269.99808c0,4.86011 -3.01147,8.6 -12.5,8.6c-5.68853,0 -8.1,-3.73989 -8.1,-8.6c0,-4.86011 4.61147,-8.8 10.3,-8.8c5.68853,0 10.3,3.93989 10.3,8.8z" fill="#ffffff" stroke="#000000" stroke-width="3" stroke-linecap="butt"/><path d="M296.56424,222.19808c0,0 0.71364,-5.05228 1.2098,-7.21414c0.42663,-1.85888 1.5902,-4.98586 1.5902,-4.98586" fill="none" stroke="#000000" stroke-width="3.5" stroke-linecap="round"/><path d="M315.16424,215.79808c0,0 -1.01008,-3.38561 -0.91219,-4.82129c0.10195,-1.49523 1.51219,-4.57871 1.51219,-4.57871" fill="none" stroke="#000000" stroke-width="2.5" stroke-linecap="round"/><path d="M325.76424,208.19808c0,0 -0.24115,1.8522 -0.67477,3.10489c-0.66467,1.92015 -3.32523,7.89511 -3.32523,7.89511" fill="none" stroke="#000000" stroke-width="3.5" stroke-linecap="round"/><path d="M315.36424,224.19808l-0.2,-6.8" fill="none" stroke="#000000" stroke-width="2.5" stroke-linecap="round"/><path d="M321.16424,226.39808l1.6,-1.2" fill="none" stroke="#000000" stroke-width="2.5" stroke-linecap="round"/><path d="M178.96424,265.79808c0,4.41828 -8.41735,13 -15.1,13c-10.88265,0 -11.1,-6.98172 -11.1,-11.4c0,-4.41828 7.61735,-8 14.3,-8c6.68265,0 11.9,1.98172 11.9,6.4z" fill="#ffffff" stroke="#000000" stroke-width="3" stroke-linecap="butt"/><path d="M249.56424,259.59808c0,6.4065 -13.25826,8.6 -30.6,8.6c-3.92647,0 -5.17498,3.41201 -10.25466,4.79995c-4.06328,1.11022 -8.61854,0.1491 -11.7027,-0.42786c-6.03998,-1.1299 -2.59236,-10.76971 -3.53839,-11.34409c-1.46017,-0.88653 -10.90424,0.69534 -11.10424,-4.028c-0.04212,-0.99471 0.91179,-1.08472 1.90691,-1.58513c3.38556,-1.70244 11.47806,-1.81016 18.98161,-3.65483c4.48311,-1.10213 5.83348,-7.16005 11.31149,-7.16005c5.53544,0 6.18043,3.50059 11.28243,4.70009c6.50385,1.52909 17.12533,1.06893 20.51268,3.80178c2.28015,1.83958 3.2049,4.54339 3.2049,6.29813z" fill="#ffffff" stroke="#000000" stroke-width="3" stroke-linecap="butt"/><path d="M186.96424,270.89808c0,4.58396 0.8663,7.5 -6.7,7.5c-5.21053,0 -14.3768,1.56558 -18.58321,-0.20198c-1.90179,-0.79915 -1.51679,-3.8708 -1.51679,-5.29802c0,-4.58396 6.3337,-9.1 13.9,-9.1c7.5663,0 12.9,2.51604 12.9,7.1z" fill="#ffffff" stroke="#000000" stroke-width="3" stroke-linecap="butt"/><path d="M167.76424,264.79808l6.2,4.8l0.4,9" fill="none" stroke="#000000" stroke-width="2" stroke-linecap="round"/><path d="M203.96424,252.19808l5.8,5.8l-1.2,14.2" fill="none" stroke="#000000" stroke-width="2" stroke-linecap="round"/><path d="M209.76424,261.19808l5.8,7.4" fill="none" stroke="#000000" stroke-width="2" stroke-linecap="round"/><path d="M231.08924,252.19808l2.2,7l-1,7.4" fill="none" stroke="#000000" stroke-width="2" stroke-linecap="round"/><path d="M233.28924,259.19808l-9.4,2.6l-1.4,-1.4" fill="none" stroke="#000000" stroke-width="2" stroke-linecap="round"/><path d="M224.08924,261.99808l-1.6,1.8" fill="none" stroke="#000000" stroke-width="2" stroke-linecap="round"/><path d="M235.28924,258.89808c0,2.26437 -0.67746,4.3 -2.5,4.3c-0.82992,0 -1.43712,-2.01475 -2.28806,-2.46248c-1.01774,-0.5355 -4.21194,1.79573 -4.21194,0.56248c0,-1.26166 2.63121,-2.43857 3.68262,-3.41063c0.83562,-0.77255 1.61032,-2.68937 2.41738,-2.68937c1.82254,0 2.9,1.43563 2.9,3.7z" fill="#000000" stroke="none" stroke-width="0" stroke-linecap="butt"/><path d="M309.56424,277.09808c0,2.35581 0.22341,6.3955 -1.70733,8.21121c-2.73138,2.56865 -7.77179,2.68879 -10.39267,2.68879c-4.47351,0 -3.7,-5.01147 -3.7,-10.7c0,-5.68853 1.62649,-11.1 6.1,-11.1c4.47351,0 9.7,5.21147 9.7,10.9z" fill="#ffffff" stroke="#000000" stroke-width="3" stroke-linecap="butt"/><path d="M276.16424,283.89808c0,9.22316 -1.64416,13.1 -10.5,13.1c-7.45584,0 -13.5,-0.27684 -13.5,-9.5c0,-9.22316 12.55184,-20.96261 16.5,-19.9c4.56174,1.22775 7.5,7.07684 7.5,16.3z" fill="#ffffff" stroke="#000000" stroke-width="3" stroke-linecap="butt"/><path d="M323.92743,266.40577c2.74244,4.2116 2.76444,11.18934 -0.19756,13.11809c-2.96201,1.92875 -10.38637,0.27813 -13.12881,-3.93347c-2.74244,-4.2116 -2.56444,-10.98934 0.39756,-12.91809c2.96201,-1.92875 10.18637,-0.47813 12.92881,3.73347z" fill="#ffffff" stroke="#000000" stroke-width="3" stroke-linecap="butt"/><path d="M294.56424,280.39808c0,6.95879 -3.33695,10.8 -7.7,10.8c-4.36305,0 -7.9,-1.84121 -7.9,-8.8c0,-6.95879 1.33695,-15.2 5.7,-15.2c4.36305,0 9.9,6.24121 9.9,13.2z" fill="#ffffff" stroke="#000000" stroke-width="3" stroke-linecap="butt"/><path d="M261.09785,246.14856l3.625,12.25l-4.875,0.875" fill="none" stroke="#000000" stroke-width="2" stroke-linecap="round"/><path d="M274.47285,290.64856l-7.25,-3.25l2.875,-7.75l-2.25,-11.5" fill="none" stroke="#000000" stroke-width="2" stroke-linecap="round"/><path d="M267.09785,287.39856l-8,2.875" fill="none" stroke="#000000" stroke-width="2" stroke-linecap="round"/><path d="M292.47285,273.89856l-5.75,7.125l-4.125,-0.25l-2.5,-5.125" fill="none" stroke="#000000" stroke-width="2" stroke-linecap="round"/><path d="M286.72285,280.77356l4.25,8.5" fill="none" stroke="#000000" stroke-width="2" stroke-linecap="round"/><path d="M296.34785,262.52356v-5.25l8.375,-2.75" fill="none" stroke="#000000" stroke-width="2" stroke-linecap="round"/><path d="M299.34785,255.64856l1.75,-4.625" fill="none" stroke="#000000" stroke-width="2" stroke-linecap="round"/></g></g></svg>